<!-- Generated by IcoMoon.io -->
<svg version="1.1" xmlns="http://www.w3.org/2000/svg" width="32" height="32" viewBox="0 0 32 32">
<title>adjust</title>
<path d="M16.333 14.333c-0.533 0-1 0.467-1 1v11.333c0 0.533 0.467 1 1 1s1-0.467 1-1v-11.333c0-0.533-0.467-1-1-1zM10.667 17.333h-7.333c-0.533 0-1 0.467-1 1s0.467 1 1 1h2.333v7.333c0 0.533 0.467 1 1 1s1-0.467 1-1v-7.333h3c0.533 0 1-0.467 1-1s-0.467-1-1-1zM21.667 11.667c0-0.533-0.467-1-1-1h-3.333v-5.333c0-0.533-0.467-1-1-1s-1 0.467-1 1v5.333h-3.333c-0.533 0-1 0.467-1 1s0.467 1 1 1h8.667c0.533 0 1-0.467 1-1zM28.667 19.333h-7.333c-0.533 0-1 0.467-1 1s0.467 1 1 1h3v5.333c0 0.533 0.467 1 1 1s1-0.467 1-1v-5.333h2.333c0.533 0 1-0.467 1-1s-0.467-1-1-1zM6.667 14.333c0.533 0 1-0.467 1-1v-8c0-0.533-0.467-1-1-1s-1 0.467-1 1v8c0 0.533 0.467 1 1 1zM25.333 16.333c0.533 0 1-0.467 1-1v-10c0-0.533-0.467-1-1-1s-1 0.467-1 1v10c0 0.533 0.467 1 1 1z"></path>
</svg>
