<!-- Generated by IcoMoon.io -->
<svg version="1.1" xmlns="http://www.w3.org/2000/svg" width="32" height="32" viewBox="0 0 32 32">
<title>arrow-double-left</title>
<path d="M26.333 27c-0.267 0-0.467-0.067-0.667-0.267l-10.667-9.667c-0.2-0.2-0.333-0.467-0.333-0.733s0.133-0.533 0.333-0.733l10.667-9.667c0.4-0.4 1.067-0.333 1.4 0.067 0.4 0.4 0.333 1.067-0.067 1.4l-9.867 8.933 9.867 8.933c0.4 0.333 0.467 1 0.067 1.4-0.2 0.2-0.467 0.333-0.733 0.333zM16 27c-0.267 0-0.467-0.067-0.667-0.267l-10.667-9.667c-0.2-0.2-0.333-0.467-0.333-0.733s0.133-0.533 0.333-0.733l10.667-9.667c0.4-0.4 1.067-0.333 1.4 0.067 0.4 0.4 0.333 1.067-0.067 1.4l-9.867 8.933 9.867 8.933c0.4 0.4 0.467 1 0.067 1.4-0.2 0.2-0.467 0.333-0.733 0.333z"></path>
</svg>
