<!-- Generated by IcoMoon.io -->
<svg version="1.1" xmlns="http://www.w3.org/2000/svg" width="32" height="32" viewBox="0 0 32 32">
<title>arrow-right-circle</title>
<path d="M16 2.333c-7.533 0-13.667 6.133-13.667 13.667s6.133 13.667 13.667 13.667 13.667-6.133 13.667-13.667-6.133-13.667-13.667-13.667zM16 27.667c-6.4 0-11.667-5.267-11.667-11.667s5.267-11.667 11.667-11.667 11.667 5.267 11.667 11.667-5.267 11.667-11.667 11.667zM17.067 9.667c-0.4-0.4-1-0.4-1.4-0.067-0.4 0.4-0.4 1-0.067 1.4l3.733 4h-8.667c-0.533 0-1 0.467-1 1s0.467 1 1 1h8.667l-3.733 4c-0.4 0.4-0.333 1.067 0.067 1.4 0.2 0.2 0.467 0.267 0.667 0.267 0.267 0 0.533-0.133 0.733-0.333l5.333-5.667c0.333-0.4 0.333-1 0-1.4l-5.333-5.6z"></path>
</svg>
