<!-- Generated by IcoMoon.io -->
<svg version="1.1" xmlns="http://www.w3.org/2000/svg" width="32" height="32" viewBox="0 0 32 32">
<title>arrow-left-circle</title>
<path d="M16 2.333c-7.533 0-13.667 6.133-13.667 13.667s6.133 13.667 13.667 13.667 13.667-6.133 13.667-13.667-6.133-13.667-13.667-13.667zM16 27.667c-6.4 0-11.667-5.267-11.667-11.667s5.267-11.667 11.667-11.667 11.667 5.267 11.667 11.667-5.267 11.667-11.667 11.667zM21.333 15h-8.667l3.733-4c0.4-0.4 0.333-1.067-0.067-1.4s-1.067-0.333-1.4 0.067l-5.333 5.667c-0.333 0.4-0.333 1 0 1.4l5.333 5.667c0.2 0.2 0.467 0.333 0.733 0.333s0.467-0.067 0.667-0.267c0.4-0.4 0.4-1 0.067-1.4l-3.733-4h8.667c0.533 0 1-0.467 1-1s-0.467-1.067-1-1.067z"></path>
</svg>
