<!-- Generated by IcoMoon.io -->
<svg version="1.1" xmlns="http://www.w3.org/2000/svg" width="32" height="32" viewBox="0 0 32 32">
<title>arrow-double-right</title>
<path d="M17 16.333c0-0.267-0.133-0.533-0.333-0.733l-10.667-9.667c-0.4-0.4-1.067-0.333-1.4 0.067-0.4 0.4-0.333 1.067 0.067 1.4l9.867 8.933-9.867 8.933c-0.4 0.4-0.467 1-0.067 1.4 0.2 0.2 0.467 0.333 0.733 0.333s0.467-0.067 0.667-0.267l10.667-9.667c0.2-0.2 0.333-0.467 0.333-0.733zM27 15.6l-10.667-9.667c-0.4-0.4-1.067-0.333-1.4 0.067-0.4 0.4-0.333 1.067 0.067 1.4l9.867 8.933-9.867 8.933c-0.4 0.4-0.467 1-0.067 1.4 0.2 0.2 0.467 0.333 0.733 0.333s0.467-0.067 0.667-0.267l10.667-9.667c0.2-0.2 0.333-0.467 0.333-0.733s-0.133-0.533-0.333-0.733z"></path>
</svg>
