<!-- Generated by IcoMoon.io -->
<svg version="1.1" xmlns="http://www.w3.org/2000/svg" width="32" height="32" viewBox="0 0 32 32">
<title>ashbin</title>
<path d="M27.333 7.533h-6.333v-2.2c0-1.267-1.067-2.333-2.333-2.333h-5.333c-1.267 0-2.333 1.067-2.333 2.333v2.2h-6.333c-0.533 0-1 0.467-1 1s0.467 1 1 1h1.667v17.133c0 1.267 1.067 2.333 2.333 2.333h14.667c1.267 0 2.333-1.067 2.333-2.333v-17.133h1.667c0.533 0 1-0.467 1-1s-0.467-1-1-1zM13 5.333c0-0.2 0.133-0.333 0.333-0.333h5.333c0.2 0 0.333 0.133 0.333 0.333v2.2h-6v-2.2zM23.667 26.667c0 0.2-0.133 0.333-0.333 0.333h-14.667c-0.2 0-0.333-0.133-0.333-0.333v-17h15.333v17zM13.333 23c0.533 0 1-0.467 1-1v-6.667c0-0.533-0.467-1-1-1s-1 0.467-1 1v6.667c0 0.533 0.467 1 1 1zM18.667 23c0.533 0 1-0.467 1-1v-6.667c0-0.533-0.467-1-1-1s-1 0.467-1 1v6.667c0 0.533 0.467 1 1 1z"></path>
</svg>
