<!-- Generated by IcoMoon.io -->
<svg version="1.1" xmlns="http://www.w3.org/2000/svg" width="32" height="32" viewBox="0 0 32 32">
<title>attachment</title>
<path d="M27.333 14.6c-0.333-0.333-0.933-0.4-1.333 0l-10.733 10.667c-2.333 2.333-6.2 2.333-8.6 0-1.133-1.133-1.8-2.667-1.8-4.267s0.6-3.133 1.8-4.267l10.733-10.733c1.467-1.467 3.8-1.467 5.267 0 0.733 0.733 1.067 1.667 1.067 2.6 0 1-0.4 1.933-1.067 2.6l-10.667 10.8c-0.533 0.533-1.4 0.533-2 0-0.267-0.267-0.4-0.6-0.4-1s0.133-0.733 0.4-1l9.933-9.867c0.333-0.333 0.4-0.933 0-1.333-0.333-0.4-0.933-0.4-1.333 0l-9.933 9.867c-0.6 0.6-0.933 1.467-0.933 2.333s0.333 1.667 0.933 2.333c1.267 1.267 3.333 1.267 4.6 0l10.733-10.733c1.067-1.067 1.667-2.467 1.667-3.933s-0.6-2.933-1.667-3.933c-1.013-1.019-2.416-1.65-3.967-1.65s-2.953 0.631-3.966 1.65l-10.667 10.667c-1.467 1.467-2.333 3.467-2.333 5.6s0.8 4.133 2.333 5.6c1.533 1.533 3.6 2.333 5.6 2.333s4.067-0.8 5.6-2.333l10.733-10.667c0.333-0.4 0.333-1 0-1.333z"></path>
</svg>
