<!-- Generated by IcoMoon.io -->
<svg version="1.1" xmlns="http://www.w3.org/2000/svg" width="32" height="32" viewBox="0 0 32 32">
<title>bad</title>
<path d="M28.267 16.333l-1.6-10.533c-0.267-1.6-1.733-2.8-3.333-2.8h-16.933c-1.867 0-3.4 1.467-3.4 3.333v8.067c0 1.8 1.533 3.333 3.4 3.333h2.867l3.933 8.8c0.067 0.067 0.067 0.133 0.133 0.2 0.467 0.733 1.2 1.133 2 1.133 0.4 0 0.8-0.133 1.2-0.333 1.8-1.067 2.733-2.267 2.733-3.667v-3.667h5.733c1 0 1.867-0.4 2.533-1.133 0.6-0.8 0.933-1.733 0.733-2.733zM9 15.667h-2.6c-0.8 0-1.4-0.6-1.4-1.333v-8c0-0.733 0.6-1.333 1.4-1.333h2.6v10.667zM26 17.733c-0.267 0.267-0.667 0.467-1.067 0.467h-6.667c-0.533 0-1 0.467-1 1v4.667c0 0.8-0.933 1.533-1.733 2-0.133 0.067-0.333 0.067-0.467-0.133l-4.067-9.067v-11.667h12.333c0.667 0 1.267 0.467 1.333 1.133l1.667 10.533c0.067 0.333-0.067 0.733-0.333 1.067z"></path>
</svg>
