<!-- Generated by IcoMoon.io -->
<svg version="1.1" xmlns="http://www.w3.org/2000/svg" width="32" height="32" viewBox="0 0 32 32">
<title>bottom</title>
<path d="M28 27h-24c-0.533 0-1 0.467-1 1s0.467 1 1 1h24c0.533 0 1-0.467 1-1s-0.467-1-1-1zM15.267 22.733c0.2 0.2 0.467 0.267 0.733 0.267s0.533-0.067 0.733-0.267l6.667-6.667c0.4-0.4 0.4-1 0-1.4s-1-0.4-1.4 0l-4.933 4.933v-14.267c0-0.533-0.467-1-1-1s-1.067 0.467-1.067 1v14.267l-4.933-4.933c-0.4-0.4-1-0.4-1.4 0s-0.4 1 0 1.4l6.6 6.667z"></path>
</svg>
