<!-- Generated by IcoMoon.io -->
<svg version="1.1" xmlns="http://www.w3.org/2000/svg" width="32" height="32" viewBox="0 0 32 32">
<title>browse</title>
<path d="M16 26.133c-8.8 0-13.667-9.467-13.867-9.867-0.133-0.267-0.133-0.6 0-0.933 0.2-0.4 5.133-9.867 13.867-9.867 8.8 0 13.667 9.533 13.867 9.933 0.133 0.267 0.133 0.6 0 0.933-0.2 0.333-5.067 9.8-13.867 9.8zM4.133 15.8c1.067 1.8 5.333 8.333 11.867 8.333s10.8-6.533 11.867-8.333c-1.067-1.8-5.333-8.333-11.867-8.333s-10.8 6.533-11.867 8.333zM16 20.333c-2.4 0-4.333-1.933-4.333-4.333s1.933-4.333 4.333-4.333 4.333 1.933 4.333 4.333-1.933 4.333-4.333 4.333zM16 13.667c-1.267 0-2.333 1.067-2.333 2.333s1.067 2.333 2.333 2.333 2.333-1.067 2.333-2.333-1.067-2.333-2.333-2.333z"></path>
</svg>
