<!-- Generated by IcoMoon.io -->
<svg version="1.1" xmlns="http://www.w3.org/2000/svg" width="32" height="32" viewBox="0 0 32 32">
<title>calendar</title>
<path d="M26.667 4.667h-4.333v-1.333c0-0.533-0.467-1-1-1s-1 0.467-1 1v1.333h-8.667v-1.333c0-0.533-0.467-1-1-1s-1 0.467-1 1v1.333h-4.333c-1.267 0-2.333 1.067-2.333 2.333v19.333c0 1.267 1.067 2.333 2.333 2.333h21.333c1.267 0 2.333-1.067 2.333-2.333v-19.333c0-1.267-1.067-2.333-2.333-2.333zM5.333 6.667h4.333v2c0 0.533 0.467 1 1 1s1-0.467 1-1v-2h8.667v2c0 0.533 0.467 1 1 1s1-0.467 1-1v-2h4.333c0.2 0 0.333 0.133 0.333 0.333v6.067c-0.133-0.067-0.2-0.067-0.333-0.067h-21.333c-0.133 0-0.2 0-0.333 0.067v-6.067c0-0.2 0.133-0.333 0.333-0.333zM26.667 26.667h-21.333c-0.2 0-0.333-0.133-0.333-0.333v-11.4c0.133 0.067 0.2 0.067 0.333 0.067h21.333c0.133 0 0.2 0 0.333-0.067v11.4c0 0.2-0.133 0.333-0.333 0.333zM12 19h-2.667c-0.533 0-1 0.467-1 1s0.467 1 1 1h2.667c0.533 0 1-0.467 1-1s-0.467-1-1-1zM22.667 19h-6c-0.533 0-1 0.467-1 1s0.467 1 1 1h6c0.533 0 1-0.467 1-1s-0.467-1-1-1z"></path>
</svg>
