<!-- Generated by IcoMoon.io -->
<svg version="1.1" xmlns="http://www.w3.org/2000/svg" width="32" height="32" viewBox="0 0 32 32">
<title>camera</title>
<path d="M26.467 7.467h-4.4l-1.867-2.8c-0.2-0.333-0.533-0.533-0.933-0.533h-6.533c-0.4 0-0.733 0.2-0.933 0.533l-1.867 2.8h-4.4c-1.8 0-3.333 1.467-3.333 3.333v13.333c0 1.8 1.467 3.333 3.333 3.333h21c1.8 0 3.333-1.467 3.333-3.333v-13.333c-0.067-1.867-1.533-3.333-3.4-3.333zM27.533 24.133c0 0.6-0.467 1.067-1.067 1.067h-20.933c-0.6 0-1.067-0.467-1.067-1.067v-13.333c0-0.6 0.467-1.067 1.067-1.067h5c0.4 0 0.733-0.2 0.933-0.533l1.867-2.733h5.333l1.867 2.8c0.2 0.333 0.533 0.533 0.933 0.533h5c0.6 0 1.067 0.467 1.067 1.067v13.267zM16 11.4c-3 0-5.467 2.467-5.467 5.467s2.467 5.467 5.467 5.467c3 0 5.467-2.467 5.467-5.467s-2.467-5.467-5.467-5.467zM16 20.133c-1.8 0-3.267-1.467-3.267-3.267s1.467-3.267 3.267-3.267 3.267 1.467 3.267 3.267-1.467 3.267-3.267 3.267z"></path>
</svg>
