<!-- Generated by IcoMoon.io -->
<svg version="1.1" xmlns="http://www.w3.org/2000/svg" width="32" height="32" viewBox="0 0 32 32">
<title>caps-lock</title>
<path d="M26.667 3h-21.333c-1.267 0-2.333 1.067-2.333 2.333v21.333c0 1.267 1.067 2.333 2.333 2.333h21.333c1.267 0 2.333-1.067 2.333-2.333v-21.333c0-1.267-1.067-2.333-2.333-2.333zM27 26.667c0 0.2-0.133 0.333-0.333 0.333h-21.333c-0.2 0-0.333-0.133-0.333-0.333v-21.333c0-0.2 0.133-0.333 0.333-0.333h21.333c0.2 0 0.333 0.133 0.333 0.333v21.333zM17 9.333c-0.6-0.4-1.333-0.4-1.933 0l-5.8 4.533-0.067 0.133c-0.2 0.2-0.533 0.6-0.533 1.2 0 0.267 0.067 0.467 0.133 0.667 0.267 0.533 0.8 0.933 1.4 0.933h1.867v5.4c0 0.867 0.667 1.6 1.6 1.6h4.6c0.933 0 1.667-0.667 1.667-1.6v-5.4h1.8c0.667 0 1.333-0.467 1.467-1.133 0.133-0.6 0-1.2-0.467-1.6l-5.733-4.733zM17.933 14.733v6.933h-3.8v-6.933h-2.667l4.533-3.6 4.533 3.6h-2.6z"></path>
</svg>
