<!-- Generated by IcoMoon.io -->
<svg version="1.1" xmlns="http://www.w3.org/2000/svg" width="32" height="32" viewBox="0 0 32 32">
<title>caps-unlock-filling</title>
<path d="M5.333 29c-1.267 0-2.333-1.067-2.333-2.333v-21.333c0-1.267 1.067-2.333 2.333-2.333h21.333c1.267 0 2.333 1.067 2.333 2.333v21.333c0 1.267-1.067 2.333-2.333 2.333h-21.333zM13.733 22.667h4.6c0.4 0 0.667-0.2 0.667-0.6v-6.4h2.8c0.2 0 0.467-0.2 0.533-0.4s0-0.467-0.2-0.6l-5.733-4.533c-0.2-0.2-0.533-0.2-0.733 0l-5.8 4.533c-0.133 0.133-0.2 0.267-0.2 0.467 0 0.067 0 0.133 0.067 0.2 0.067 0.2 0.267 0.4 0.533 0.4h2.867v6.4c0 0.333 0.2 0.533 0.6 0.533z"></path>
</svg>
