<!-- Generated by IcoMoon.io -->
<svg version="1.1" xmlns="http://www.w3.org/2000/svg" width="32" height="32" viewBox="0 0 32 32">
<title>chart-pie</title>
<path d="M27.733 20.067c-0.533-0.2-1.067 0-1.333 0.533-2 4.733-6.933 7.6-12.067 6.933s-9.2-4.667-9.867-9.8c-0.733-5.067 2.067-10.067 6.733-12.133 0.533-0.2 0.733-0.8 0.533-1.333s-0.8-0.733-1.333-0.533c-5.533 2.467-8.8 8.333-7.933 14.333s5.6 10.733 11.6 11.533c0.6 0.067 1.133 0.133 1.733 0.133 5.333 0 10.333-3.2 12.467-8.267 0.2-0.533-0.067-1.133-0.533-1.4zM25.467 6.533c-2.733-2.733-6.333-4.2-10.133-4.2-0.533 0-1 0.467-1 1v13.333c0 0.533 0.467 1 1 1h13.333c0.533 0 1-0.467 1-1 0-3.8-1.467-7.4-4.2-10.133zM16.333 15.667v-11.267c2.933 0.2 5.6 1.467 7.733 3.6 2.067 2.067 3.333 4.8 3.6 7.733h-11.333z"></path>
</svg>
