<!-- Generated by IcoMoon.io -->
<svg version="1.1" xmlns="http://www.w3.org/2000/svg" width="32" height="32" viewBox="0 0 32 32">
<title>chart-bar</title>
<path d="M4.667 25h4c0.933 0 1.667-0.733 1.667-1.667v-6.667c0-0.933-0.733-1.667-1.667-1.667h-4c-0.933 0-1.667 0.733-1.667 1.667v6.667c0 0.933 0.733 1.667 1.667 1.667zM5 17h3.333v6h-3.333v-6zM14 25h4c0.933 0 1.667-0.733 1.667-1.667v-18.667c0-0.933-0.733-1.667-1.667-1.667h-4c-0.933 0-1.667 0.733-1.667 1.667v18.667c0 0.933 0.733 1.667 1.667 1.667zM14.333 5h3.333v18h-3.333v-18zM27.333 9.667h-4c-0.933 0-1.667 0.733-1.667 1.667v12c0 0.933 0.733 1.667 1.667 1.667h4c0.933 0 1.667-0.733 1.667-1.667v-12c0-0.933-0.733-1.667-1.667-1.667zM27 23h-3.333v-11.333h3.333v11.333zM28 26.667h-24c-0.533 0-1 0.467-1 1s0.467 1 1 1h24c0.533 0 1-0.467 1-1s-0.467-1-1-1z"></path>
</svg>
