<!-- Generated by IcoMoon.io -->
<svg version="1.1" xmlns="http://www.w3.org/2000/svg" width="32" height="32" viewBox="0 0 32 32">
<title>check-item</title>
<path d="M26.667 3h-21.333c-1.267 0-2.333 1.067-2.333 2.333v21.333c0 1.267 1.067 2.333 2.333 2.333h21.333c1.267 0 2.333-1.067 2.333-2.333v-21.333c0-1.267-1.067-2.333-2.333-2.333zM27 26.667c0 0.2-0.133 0.333-0.333 0.333h-21.333c-0.2 0-0.333-0.133-0.333-0.333v-21.333c0-0.2 0.133-0.333 0.333-0.333h21.333c0.2 0 0.333 0.133 0.333 0.333v21.333zM22 11.933l-7.6 7.333-3.667-3.933c-0.4-0.4-1-0.4-1.4-0.067-0.4 0.4-0.4 1-0.067 1.4l4.4 4.667c0.2 0.2 0.467 0.333 0.733 0.333s0.533-0.133 0.667-0.267l8.267-8c0.4-0.4 0.4-1 0-1.4-0.333-0.4-0.933-0.467-1.333-0.067z"></path>
</svg>
