<!-- Generated by IcoMoon.io -->
<svg version="1.1" xmlns="http://www.w3.org/2000/svg" width="32" height="32" viewBox="0 0 32 32">
<title>check-item-filling</title>
<path d="M26.667 3c1.267 0 2.333 1.067 2.333 2.333v21.333c0 1.267-1.067 2.333-2.333 2.333h-21.333c-1.267 0-2.333-1.067-2.333-2.333v-21.333c0-1.267 1.067-2.333 2.333-2.333h21.333zM23.4 12c-0.4-0.4-1-0.4-1.4 0l-7.6 7.267-3.667-3.933-0.067-0.067c-0.4-0.333-0.933-0.333-1.333 0-0.4 0.4-0.4 1-0.067 1.4l4.467 4.733c0.4 0.333 1 0.333 1.333-0.067l8.333-8.067c0.333-0.333 0.333-0.933 0-1.267z"></path>
</svg>
