<!-- Generated by IcoMoon.io -->
<svg version="1.1" xmlns="http://www.w3.org/2000/svg" width="32" height="32" viewBox="0 0 32 32">
<title>clock-filling</title>
<path d="M16 2.333c7.533 0 13.667 6.133 13.667 13.667s-6.133 13.667-13.667 13.667-13.667-6.133-13.667-13.667 6.133-13.667 13.667-13.667zM16 7.667c-0.533 0-1 0.467-1 1v7.533c0.067 0.333 0.267 0.667 0.6 0.8l5.333 2.533 0.067 0.067c0.467 0.2 1-0.067 1.267-0.533l0.067-0.067c0.2-0.467-0.067-1-0.533-1.267l-4.733-2.2v-6.933c-0.133-0.533-0.533-0.933-1.067-0.933z"></path>
</svg>
