<!-- Generated by IcoMoon.io -->
<svg version="1.1" xmlns="http://www.w3.org/2000/svg" width="32" height="32" viewBox="0 0 32 32">
<title>code</title>
<path d="M10.067 9.267c-0.4-0.4-1-0.4-1.4 0l-6 6c-0.4 0.4-0.4 1 0 1.4l6 6c0.2 0.2 0.467 0.267 0.733 0.267s0.533-0.067 0.733-0.267c0.4-0.4 0.4-1 0-1.4l-5.4-5.267 5.267-5.267c0.4-0.4 0.4-1.067 0.067-1.467zM29.4 15.267l-6-6c-0.4-0.4-1-0.4-1.4 0s-0.4 1 0 1.4l5.267 5.267-5.267 5.267c-0.4 0.4-0.4 1 0 1.4 0.2 0.2 0.467 0.267 0.733 0.267s0.533-0.067 0.733-0.267l6-6c0.267-0.267 0.267-0.933-0.067-1.333zM19.467 2.4c-0.533-0.133-1.067 0.2-1.2 0.733l-6.8 25.067c-0.133 0.533 0.2 1.067 0.733 1.2 0.067 0 0.2 0.067 0.267 0.067 0.467 0 0.867-0.267 0.933-0.733l6.733-25.133c0.133-0.533-0.133-1.067-0.667-1.2z"></path>
</svg>
