<!-- Generated by IcoMoon.io -->
<svg version="1.1" xmlns="http://www.w3.org/2000/svg" width="32" height="32" viewBox="0 0 32 32">
<title>column-horizontal</title>
<path d="M27.333 3.667h-22.667c-1.267 0-2.333 1.067-2.333 2.333v20c0 1.267 1.067 2.333 2.333 2.333h22.667c1.267 0 2.333-1.067 2.333-2.333v-20c0-1.267-1.067-2.333-2.333-2.333zM4.333 26v-20c0-0.2 0.133-0.333 0.333-0.333h10.333v20.667h-10.333c-0.2 0-0.333-0.133-0.333-0.333zM27.667 26c0 0.2-0.133 0.333-0.333 0.333h-10.333v-20.667h10.333c0.2 0 0.333 0.133 0.333 0.333v20z"></path>
</svg>
