<!-- Generated by IcoMoon.io -->
<svg version="1.1" xmlns="http://www.w3.org/2000/svg" width="32" height="32" viewBox="0 0 32 32">
<title>comment</title>
<path d="M26.667 4.333h-21.333c-1.267 0-2.333 1.067-2.333 2.333v16c0 1.267 1.067 2.333 2.333 2.333h4.733v3.667c0 0.4 0.267 0.8 0.6 0.933 0.133 0.067 0.267 0.067 0.4 0.067 0.267 0 0.533-0.133 0.733-0.333l4.267-4.333h10.6c1.267 0 2.333-1.067 2.333-2.333v-16c0-1.267-1.067-2.333-2.333-2.333zM27 22.667c0 0.2-0.133 0.333-0.333 0.333h-11c-0.267 0-0.533 0.133-0.733 0.333l-2.8 2.933v-2.267c0-0.533-0.467-1-1-1h-5.8c-0.2 0-0.333-0.133-0.333-0.333v-16c0-0.2 0.133-0.333 0.333-0.333h21.333c0.2 0 0.333 0.133 0.333 0.333v16zM16 15.333h-6.667c-0.533 0-1 0.467-1 1s0.467 1 1 1h6.667c0.533 0 1-0.467 1-1s-0.467-1-1-1zM21 10.667h-11.667c-0.533 0-1 0.467-1 1s0.467 1 1 1h11.667c0.533 0 1-0.467 1-1s-0.467-1-1-1z"></path>
</svg>
