<!-- Generated by IcoMoon.io -->
<svg version="1.1" xmlns="http://www.w3.org/2000/svg" width="32" height="32" viewBox="0 0 32 32">
<title>comment-filling</title>
<path d="M26.667 4.333h-21.333c-1.267 0-2.333 1.067-2.333 2.333v16.133c0.067 1.2 1.067 2.2 2.333 2.2h4.733v3.733c0.067 0.867 1.133 1.2 1.733 0.6l4.267-4.333h10.6c1.267 0 2.333-1.067 2.333-2.333v-16c0-1.267-1.067-2.333-2.333-2.333zM16.067 17.333h-6.733c-0.533 0-1-0.467-1-1s0.4-0.933 0.933-1h6.733c0.533 0 1 0.467 1 1s-0.4 0.933-0.933 1zM21.067 12.667h-11.733c-0.533 0-1-0.467-1-1s0.4-0.933 0.933-1h11.733c0.533 0 1 0.467 1 1s-0.4 0.933-0.933 1z"></path>
</svg>
