<!-- Generated by IcoMoon.io -->
<svg version="1.1" xmlns="http://www.w3.org/2000/svg" width="32" height="32" viewBox="0 0 32 32">
<title>copy</title>
<path d="M26.667 7h-1.667v-1.667c0-1.267-1.067-2.333-2.333-2.333h-17.333c-1.267 0-2.333 1.067-2.333 2.333v17.333c0 1.267 1.067 2.333 2.333 2.333h1.667v1.667c0 1.267 1.067 2.333 2.333 2.333h17.333c1.267 0 2.333-1.067 2.333-2.333v-17.333c0-1.267-1.067-2.333-2.333-2.333zM5 22.667v-17.333c0-0.2 0.133-0.333 0.333-0.333h17.333c0.2 0 0.333 0.133 0.333 0.333v17.333c0 0.2-0.133 0.333-0.333 0.333h-17.333c-0.2 0-0.333-0.133-0.333-0.333zM27 26.667c0 0.2-0.133 0.333-0.333 0.333h-17.333c-0.2 0-0.333-0.133-0.333-0.333v-1.667h13.667c1.267 0 2.333-1.067 2.333-2.333v-13.667h1.667c0.2 0 0.333 0.133 0.333 0.333v17.333zM18 13h-3v-3c0-0.533-0.467-1-1-1s-1 0.467-1 1v3h-3c-0.533 0-1 0.467-1 1s0.467 1 1 1h3v3c0 0.533 0.467 1 1 1s1-0.467 1-1v-3h3c0.533 0 1-0.467 1-1s-0.467-1-1-1z"></path>
</svg>
