<!-- Generated by IcoMoon.io -->
<svg version="1.1" xmlns="http://www.w3.org/2000/svg" width="32" height="32" viewBox="0 0 32 32">
<title>cry</title>
<path d="M16 2.333c-7.533 0-13.667 6.133-13.667 13.667s6.133 13.667 13.667 13.667 13.667-6.133 13.667-13.667-6.133-13.667-13.667-13.667zM16 27.667c-6.4 0-11.667-5.267-11.667-11.667s5.267-11.667 11.667-11.667 11.667 5.267 11.667 11.667-5.267 11.667-11.667 11.667zM16 18.667c-2.533 0-4.733 1.133-6.6 3.333-0.333 0.4-0.267 1.067 0.133 1.4s1.067 0.267 1.4-0.133c1.467-1.8 3.133-2.667 5.067-2.667s3.6 0.867 5.067 2.667c0.2 0.267 0.467 0.333 0.8 0.333 0.2 0 0.467-0.067 0.667-0.2 0.4-0.333 0.467-1 0.133-1.4-1.933-2.2-4.133-3.333-6.667-3.333zM11.333 16c0.733 0 1.333-0.6 1.333-1.333v-2c0-0.733-0.6-1.333-1.333-1.333s-1.333 0.6-1.333 1.333v2c0 0.733 0.6 1.333 1.333 1.333zM20.667 16c0.733 0 1.333-0.6 1.333-1.333v-2c0-0.733-0.6-1.333-1.333-1.333s-1.333 0.6-1.333 1.333v2c0 0.733 0.6 1.333 1.333 1.333z"></path>
</svg>
