<!-- Generated by IcoMoon.io -->
<svg version="1.1" xmlns="http://www.w3.org/2000/svg" width="32" height="32" viewBox="0 0 32 32">
<title>customer-service</title>
<path d="M27 13.733v-0.4c0-6.067-4.933-11-11-11s-11 4.933-11 11v0.4c-1.133 0.133-2 1.133-2 2.267v5.333c0 1.267 1.067 2.333 2.333 2.333h2.667c1.267 0 2.333-1.067 2.333-2.333v-5.333c0-1.267-1.067-2.333-2.333-2.333h-1v-0.333c0-4.933 4.067-9 9-9s9 4.067 9 9v0.333h-1c-1.267 0-2.333 1.067-2.333 2.333v5.333c0 1.267 1.067 2.333 2.333 2.333h0.667c-0.533 1.533-1.867 3.067-5.6 3.333-0.4-0.6-1-1-1.733-1-1.133 0-2 0.867-2 2s0.867 2 2 2c0.733 0 1.4-0.4 1.733-1.067 5.2-0.333 7.067-2.867 7.667-5.333 1.267-0.067 2.267-1.067 2.267-2.333v-5.333c0-1.133-0.867-2.067-2-2.2zM8.333 16v5.333c0 0.2-0.133 0.333-0.333 0.333h-2.667c-0.2 0-0.333-0.133-0.333-0.333v-5.333c0-0.2 0.133-0.333 0.333-0.333h2.667c0.2 0 0.333 0.133 0.333 0.333zM27 21.333c0 0.2-0.133 0.333-0.333 0.333h-2.667c-0.2 0-0.333-0.133-0.333-0.333v-5.333c0-0.2 0.133-0.333 0.333-0.333h2.667c0.2 0 0.333 0.133 0.333 0.333v5.333z"></path>
</svg>
