<!-- Generated by IcoMoon.io -->
<svg version="1.1" xmlns="http://www.w3.org/2000/svg" width="32" height="32" viewBox="0 0 32 32">
<title>cut</title>
<path d="M28.667 6.333h-3v-3c0-0.533-0.467-1-1-1s-1 0.467-1 1v3h-15c-1.267 0-2.333 1.067-2.333 2.333v15h-3c-0.533 0-1 0.467-1 1s0.467 1 1 1h3v3c0 0.533 0.467 1 1 1s1-0.467 1-1v-3h15c1.267 0 2.333-1.067 2.333-2.333v-15h3c0.533 0 1-0.467 1-1s-0.467-1-1-1zM23.667 23.333c0 0.2-0.133 0.333-0.333 0.333h-15v-15c0-0.2 0.133-0.333 0.333-0.333h15v15z"></path>
</svg>
