<!-- Generated by IcoMoon.io -->
<svg version="1.1" xmlns="http://www.w3.org/2000/svg" width="32" height="32" viewBox="0 0 32 32">
<title>data-view</title>
<path d="M27.333 27h-22c-0.2 0-0.333-0.133-0.333-0.333v-22c0-0.533-0.467-1-1-1s-1 0.467-1 1v22c0 1.267 1.067 2.333 2.333 2.333h22c0.533 0 1-0.467 1-1s-0.467-1-1-1zM13.667 14.667v10c0 0.533 0.467 1 1 1s1-0.467 1-1v-10c0-0.533-0.467-1-1-1s-1 0.467-1 1zM9.333 25.667c0.533 0 1-0.467 1-1v-8c0-0.533-0.467-1-1-1s-1 0.467-1 1v8c0 0.533 0.467 1 1 1zM20 17.667c-0.533 0-1 0.467-1 1v6c0 0.533 0.467 1 1 1s1-0.467 1-1v-6c0-0.533-0.467-1-1-1zM25.333 11c-0.533 0-1 0.467-1 1v12.667c0 0.533 0.467 1 1 1s1-0.467 1-1v-12.667c0-0.533-0.467-1-1-1zM10.067 12.733l4.6-4.6 4.6 4.6c0.2 0.2 0.467 0.267 0.733 0.267h0.067c0.267 0 0.533-0.2 0.733-0.4l5.333-7.333c0.333-0.467 0.2-1.067-0.2-1.4-0.467-0.333-1.067-0.2-1.4 0.2l-4.667 6.4-4.533-4.533c-0.4-0.4-1-0.4-1.4 0l-5.333 5.333c-0.4 0.4-0.4 1 0 1.4s1.067 0.4 1.467 0.067z"></path>
</svg>
