<!-- Generated by IcoMoon.io -->
<svg version="1.1" xmlns="http://www.w3.org/2000/svg" width="32" height="32" viewBox="0 0 32 32">
<title>decline-filling</title>
<path d="M19.867 10.667c0.6 0 1 0.4 1 0.933v7.4h4.867c0.4 0 0.8 0.267 0.867 0.667 0.067 0.133 0.067 0.2 0.067 0.333 0 0.267-0.2 0.6-0.4 0.8l-9.733 7.667c-0.4 0.267-0.867 0.267-1.267 0l-9.6-7.733c-0.267-0.267-0.4-0.667-0.267-1.067 0.067-0.4 0.467-0.667 0.867-0.667h4.733v-7.4c0-0.6 0.4-0.933 1.067-0.933h7.8zM19.667 6.667c0.533 0 1 0.467 1 1s-0.467 1-1 1h-7.333c-0.533 0-1-0.467-1-1s0.467-1 1-1h7.333zM19.667 3.333c0.533 0 1 0.467 1 1s-0.467 1-1 1h-7.333c-0.533 0-1-0.467-1-1s0.467-1 1-1h7.333z"></path>
</svg>
