<!-- Generated by IcoMoon.io -->
<svg version="1.1" xmlns="http://www.w3.org/2000/svg" width="32" height="32" viewBox="0 0 32 32">
<title>delete</title>
<path d="M27.333 6.333h-16.067c-0.667 0-1.267 0.267-1.733 0.733l-6.8 7.333c-0.8 0.867-0.8 2.267 0 3.133l6.8 7.333c0.467 0.467 1.067 0.733 1.733 0.733h16.067c1.267 0 2.333-1.067 2.333-2.333v-14.6c0-1.267-1.067-2.333-2.333-2.333zM27.667 23.333c0 0.2-0.133 0.333-0.333 0.333h-16.067c-0.067 0-0.2-0.067-0.267-0.133l-6.8-7.333c-0.133-0.133-0.133-0.333 0-0.467l6.8-7.333c0.067-0.067 0.133-0.133 0.267-0.133h16.067c0.2 0 0.333 0.133 0.333 0.333v14.733zM21.4 12.6c-0.4-0.4-1-0.4-1.4 0l-2 2-1.933-1.933c-0.4-0.4-1-0.4-1.4 0s-0.4 1 0 1.4l1.933 1.933-1.933 1.933c-0.4 0.4-0.4 1 0 1.4 0.2 0.2 0.467 0.267 0.733 0.267s0.533-0.067 0.733-0.267l1.933-1.933 1.933 1.933c0.2 0.2 0.467 0.267 0.733 0.267s0.533-0.067 0.733-0.267c0.4-0.4 0.4-1 0-1.4l-2.067-1.933 1.933-1.933c0.4-0.4 0.4-1.067 0.067-1.467z"></path>
</svg>
