<!-- Generated by IcoMoon.io -->
<svg version="1.1" xmlns="http://www.w3.org/2000/svg" width="32" height="32" viewBox="0 0 32 32">
<title>delete-filling</title>
<path d="M16 29.667c-7.533 0-13.667-6.133-13.667-13.667s6.133-13.667 13.667-13.667 13.667 6.133 13.667 13.667-6.133 13.667-13.667 13.667zM11.267 20.533c0.333 0.333 0.933 0.4 1.333 0.067l0.067-0.067 3.267-3.2 3.267 3.267c0.4 0.333 1 0.267 1.333-0.067 0.4-0.4 0.4-1 0-1.4l-3.2-3.2 3.267-3.267c0.333-0.4 0.267-1-0.067-1.333s-0.933-0.4-1.333-0.067l-3.267 3.267-3.267-3.267c-0.4-0.333-1-0.267-1.333 0.067-0.4 0.4-0.4 1 0 1.4l3.2 3.2-3.267 3.267c-0.333 0.4-0.333 1 0 1.333z"></path>
</svg>
