<!-- Generated by IcoMoon.io -->
<svg version="1.1" xmlns="http://www.w3.org/2000/svg" width="32" height="32" viewBox="0 0 32 32">
<title>direction-right</title>
<path d="M28.267 16.333c0.067-0.133 0.067-0.2 0.067-0.333s0-0.267-0.067-0.333c-0.067-0.133-0.133-0.2-0.2-0.267l-10.667-11.333c-0.4-0.4-1-0.4-1.4-0.067-0.4 0.4-0.4 1-0.067 1.4l9.067 9.667h-20.333c-0.533 0-1 0.467-1 1s0.467 1 1 1h20.333l-9.067 9.6c-0.4 0.4-0.333 1.067 0.067 1.4 0.2 0.2 0.467 0.267 0.667 0.267 0.267 0 0.533-0.133 0.733-0.333l10.667-11.333c0.067-0.067 0.133-0.2 0.2-0.333z"></path>
</svg>
