<!-- Generated by IcoMoon.io -->
<svg version="1.1" xmlns="http://www.w3.org/2000/svg" width="32" height="32" viewBox="0 0 32 32">
<title>direction-down-circle</title>
<path d="M16 2.333c-7.533 0-13.667 6.133-13.667 13.667s6.133 13.667 13.667 13.667 13.667-6.133 13.667-13.667-6.133-13.667-13.667-13.667zM16 27.667c-6.4 0-11.667-5.267-11.667-11.667s5.267-11.667 11.667-11.667 11.667 5.267 11.667 11.667-5.267 11.667-11.667 11.667zM21 15.6l-4 3.733v-8.667c0-0.533-0.467-1-1-1s-1 0.467-1 1v8.667l-4-3.733c-0.4-0.4-1.067-0.333-1.4 0.067-0.4 0.4-0.333 1.067 0.067 1.4l5.667 5.333c0.2 0.2 0.467 0.267 0.667 0.267s0.467-0.067 0.667-0.267l5.667-5.333c0.4-0.4 0.4-1 0.067-1.4-0.4-0.4-1-0.467-1.4-0.067z"></path>
</svg>
