<!-- Generated by IcoMoon.io -->
<svg version="1.1" xmlns="http://www.w3.org/2000/svg" width="32" height="32" viewBox="0 0 32 32">
<title>discount</title>
<path d="M27.333 3h-8.8c-0.6 0-1.2 0.267-1.667 0.667l-12.667 12.667c-0.933 0.933-0.933 2.4 0 3.267l8.133 8.133c0.467 0.467 1 0.667 1.667 0.667s1.2-0.267 1.667-0.667l12.667-12.667c0.467-0.467 0.667-1 0.667-1.667v-8.733c0-0.933-0.733-1.667-1.667-1.667zM27 13.467c0 0.067-0.067 0.2-0.067 0.267l-12.667 12.667c-0.067 0.067-0.2 0.067-0.267 0.067s-0.133 0-0.267-0.067l-8.067-8.133c-0.133-0.133-0.133-0.333 0-0.467l12.667-12.667c0.067-0.067 0.133-0.067 0.267-0.067h8.467v8.4zM22 13c1.667 0 3-1.333 3-3s-1.333-3-3-3-3 1.333-3 3 1.333 3 3 3zM22 9c0.533 0 1 0.467 1 1s-0.467 1-1 1-1-0.467-1-1 0.467-1 1-1z"></path>
</svg>
