<!-- Generated by IcoMoon.io -->
<svg version="1.1" xmlns="http://www.w3.org/2000/svg" width="32" height="32" viewBox="0 0 32 32">
<title>drag</title>
<path d="M9.333 6c0 1.105 0.895 2 2 2s2-0.895 2-2v0c0-1.105-0.895-2-2-2s-2 0.895-2 2v0zM18.667 6c0 1.105 0.895 2 2 2s2-0.895 2-2v0c0-1.105-0.895-2-2-2s-2 0.895-2 2v0zM9.333 16c0 1.105 0.895 2 2 2s2-0.895 2-2v0c0-1.105-0.895-2-2-2s-2 0.895-2 2v0zM18.667 16c0 1.105 0.895 2 2 2s2-0.895 2-2v0c0-1.105-0.895-2-2-2s-2 0.895-2 2v0zM9.333 26c0 1.105 0.895 2 2 2s2-0.895 2-2v0c0-1.105-0.895-2-2-2s-2 0.895-2 2v0zM18.667 26c0 1.105 0.895 2 2 2s2-0.895 2-2v0c0-1.105-0.895-2-2-2s-2 0.895-2 2v0z"></path>
</svg>
