<!-- Generated by IcoMoon.io -->
<svg version="1.1" xmlns="http://www.w3.org/2000/svg" width="32" height="32" viewBox="0 0 32 32">
<title>dynamic-filling</title>
<path d="M14.267 1.733c-0.4-0.133-0.867 0.067-1.133 0.4l-7.333 11.333c-0.2 0.333-0.2 0.667-0.067 1 0.2 0.333 0.533 0.533 0.867 0.533h7.333c0.533 0 1-0.467 1-1v-11.333c0.067-0.467-0.2-0.867-0.667-0.933zM25.333 17h-7.333c-0.533 0-1 0.467-1 1v11.333c0 0.467 0.267 0.8 0.733 0.933 0.067 0 0.2 0.067 0.267 0.067 0.333 0 0.667-0.133 0.867-0.467l7.333-11.333c0.2-0.333 0.2-0.667 0.067-1s-0.6-0.533-0.933-0.533zM14 17h-11.333c-0.467 0-0.867 0.267-0.933 0.733-0.133 0.4 0.067 0.867 0.4 1.133l11.333 7.333c0.133 0.133 0.333 0.133 0.533 0.133 0.133 0 0.333-0.067 0.467-0.133 0.333-0.2 0.533-0.533 0.533-0.867v-7.333c0-0.533-0.467-1-1-1zM29.867 13.133l-11.333-7.333c-0.333-0.2-0.667-0.2-1-0.067-0.333 0.2-0.533 0.533-0.533 0.867v7.333c0 0.533 0.467 1 1 1h11.333c0.467 0 0.8-0.267 0.933-0.733s0-0.8-0.4-1.067z"></path>
</svg>
