<!-- Generated by IcoMoon.io -->
<svg version="1.1" xmlns="http://www.w3.org/2000/svg" width="32" height="32" viewBox="0 0 32 32">
<title>edit</title>
<path d="M26.667 15.667c-0.533 0-1 0.467-1 1v10c0 0.2-0.133 0.333-0.333 0.333h-20c-0.2 0-0.333-0.133-0.333-0.333v-20c0-0.2 0.133-0.333 0.333-0.333h10c0.533 0 1-0.467 1-1s-0.467-1-1-1h-10c-1.267 0-2.333 1.067-2.333 2.333v20c0 1.267 1.067 2.333 2.333 2.333h20c1.267 0 2.333-1.067 2.333-2.333v-10c0-0.533-0.467-1-1-1zM12.667 15.133l-1 3.933c-0.067 0.333 0 0.733 0.267 0.933 0.2 0.2 0.467 0.267 0.733 0.267h0.267l3.933-1c0.2-0.067 0.333-0.133 0.467-0.267l9.4-9.4c1.2-1.2 1.2-3.2 0-4.4s-3.2-1.2-4.4 0l-9.4 9.467c-0.133 0.133-0.2 0.267-0.267 0.467zM14.533 15.867l9.267-9.2c0.4-0.4 1.133-0.4 1.533 0s0.4 1.133 0 1.533l-9.2 9.267-2.067 0.533 0.467-2.133z"></path>
</svg>
