<!-- Generated by IcoMoon.io -->
<svg version="1.1" xmlns="http://www.w3.org/2000/svg" width="32" height="32" viewBox="0 0 32 32">
<title>edit-filling</title>
<path d="M18.867 5.667l-6.8 6.867c-0.2 0.2-0.333 0.467-0.4 0.8l-1.6 6.6c-0.267 1.2 0.733 2.333 1.933 2l6.267-1.667c0.267-0.067 0.533-0.2 0.733-0.467l7.333-7.4v14.267c0 1.267-1 2.267-2.2 2.333h-18.8c-1.267 0-2.333-1.067-2.333-2.333v-18.667c0-1.267 1.067-2.333 2.333-2.333h13.533zM23.067 4.6l-9.467 9.4c-0.133 0.133-0.2 0.267-0.267 0.467l-1 3.933c-0.2 0.733 0.467 1.4 1.2 1.2l4-0.933c0.2-0.067 0.333-0.133 0.467-0.267l9.4-9.467c1.2-1.2 1.2-3.2 0-4.4s-3.133-1.2-4.333 0.067z"></path>
</svg>
