<!-- Generated by IcoMoon.io -->
<svg version="1.1" xmlns="http://www.w3.org/2000/svg" width="32" height="32" viewBox="0 0 32 32">
<title>electronics</title>
<path d="M26.267 3.667h-20.533c-1.867 0-3.4 1.533-3.4 3.4v11.867c0 1.867 1.533 3.4 3.4 3.4h7.267v3.6h-2.333c-0.533 0-1 0.467-1 1s0.467 1 1 1h10.667c0.533 0 1-0.467 1-1s-0.467-1-1-1h-2.333v-3.6h7.267c1.867 0 3.4-1.533 3.4-3.4v-11.867c0-1.867-1.533-3.4-3.4-3.4zM17 25.933h-2v-3.6h2v3.6zM27.667 18.933c0 0.8-0.6 1.4-1.4 1.4h-20.533c-0.8 0-1.4-0.6-1.4-1.4v-11.867c0-0.8 0.6-1.4 1.4-1.4h20.533c0.8 0 1.4 0.6 1.4 1.4v11.867z"></path>
</svg>
