<!-- Generated by IcoMoon.io -->
<svg version="1.1" xmlns="http://www.w3.org/2000/svg" width="32" height="32" viewBox="0 0 32 32">
<title>email</title>
<path d="M27.333 5.667h-22.667c-1.267 0-2.333 1.067-2.333 2.333v16c0 1.267 1.067 2.333 2.333 2.333h22.667c1.267 0 2.333-1.067 2.333-2.333v-16c0-1.267-1.067-2.333-2.333-2.333zM4.667 7.667h22.667c0.2 0 0.333 0.133 0.333 0.333v0.8l-11.667 7.333-11.667-7.333v-0.8c0-0.2 0.133-0.333 0.333-0.333zM27.333 24.333h-22.667c-0.2 0-0.333-0.133-0.333-0.333v-12.867l11.133 7c0.133 0.133 0.333 0.133 0.533 0.133s0.4-0.067 0.533-0.133l11.133-7v12.867c0 0.2-0.133 0.333-0.333 0.333z"></path>
</svg>
