<!-- Generated by IcoMoon.io -->
<svg version="1.1" xmlns="http://www.w3.org/2000/svg" width="32" height="32" viewBox="0 0 32 32">
<title>error</title>
<path d="M16 2.333c-7.533 0-13.667 6.133-13.667 13.667s6.133 13.667 13.667 13.667 13.667-6.133 13.667-13.667-6.133-13.667-13.667-13.667zM16 27.667c-6.4 0-11.667-5.267-11.667-11.667s5.267-11.667 11.667-11.667 11.667 5.267 11.667 11.667-5.267 11.667-11.667 11.667zM20.533 11.267c-0.4-0.4-1-0.4-1.4 0l-3.2 3.2-3.2-3.2c-0.4-0.4-1-0.4-1.4 0s-0.4 1 0 1.4l3.2 3.2-3.2 3.2c-0.4 0.4-0.4 1 0 1.4 0.2 0.2 0.467 0.267 0.733 0.267s0.533-0.067 0.733-0.267l3.2-3.2 3.2 3.2c0.2 0.2 0.467 0.267 0.733 0.267s0.533-0.067 0.733-0.267c0.4-0.4 0.4-1 0-1.4l-3.333-3.133 3.2-3.2c0.4-0.4 0.4-1.067 0-1.467z"></path>
</svg>
