<!-- Generated by IcoMoon.io -->
<svg version="1.1" xmlns="http://www.w3.org/2000/svg" width="32" height="32" viewBox="0 0 32 32">
<title>explain</title>
<path d="M24.667 2.333h-17.333c-1.267 0-2.333 1.067-2.333 2.333v22.667c0 1.267 1.067 2.333 2.333 2.333h17.333c1.267 0 2.333-1.067 2.333-2.333v-22.667c0-1.267-1.067-2.333-2.333-2.333zM20.333 4.333v9.267l-2.333-2.2c-0.2-0.2-0.467-0.267-0.667-0.267-0.267 0-0.533 0.067-0.667 0.267l-2.333 2.267v-9.333h6zM25 27.333c0 0.2-0.133 0.333-0.333 0.333h-17.333c-0.2 0-0.333-0.133-0.333-0.333v-22.667c0-0.2 0.133-0.333 0.333-0.333h5v10.067c0 0.467 0.2 0.867 0.467 1.133 0.667 0.667 1.667 0.667 2.333 0l2.2-2.133 2.2 2.133c0.333 0.333 0.733 0.467 1.133 0.467 0.933 0 1.667-0.733 1.667-1.667v-10h2.333c0.2 0 0.333 0.133 0.333 0.333v22.667z"></path>
</svg>
