<!-- Generated by IcoMoon.io -->
<svg version="1.1" xmlns="http://www.w3.org/2000/svg" width="32" height="32" viewBox="0 0 32 32">
<title>eye-close</title>
<path d="M29.867 15.4c-0.2-0.4-5.067-9.933-13.867-9.933-0.733 0-1.467 0.067-2.2 0.2-0.533 0.133-0.933 0.6-0.8 1.133s0.6 0.933 1.133 0.8c0.6-0.133 1.2-0.133 1.8-0.133 6.533 0 10.8 6.533 11.867 8.333-0.333 0.6-1 1.667-2 2.867-0.333 0.4-0.267 1.067 0.133 1.4 0.2 0.133 0.4 0.2 0.667 0.2s0.6-0.133 0.8-0.333c1.6-1.933 2.467-3.6 2.467-3.667 0.2-0.267 0.2-0.6 0-0.867zM6.733 3.933c-0.4-0.4-1-0.4-1.4 0s-0.4 1 0 1.4l2.867 2.867c-3.867 2.867-5.933 6.933-6.067 7.133-0.133 0.267-0.133 0.6 0 0.933 0.2 0.4 5.067 9.867 13.867 9.867 2.6 0 5.133-0.867 7.533-2.533l3 3c0.2 0.2 0.467 0.267 0.733 0.267s0.533-0.067 0.733-0.267c0.4-0.4 0.4-1 0-1.4l-21.267-21.267zM14.333 14.4l3.267 3.267c-0.4 0.4-1 0.667-1.6 0.667-1.267 0-2.333-1.067-2.333-2.333 0-0.6 0.267-1.2 0.667-1.6zM16 24.133c-6.533 0-10.8-6.533-11.867-8.333 0.667-1.133 2.533-4.067 5.467-6.133l3.267 3.267c-0.8 0.8-1.2 1.867-1.2 3 0 2.4 1.933 4.333 4.333 4.333 1.133 0 2.2-0.467 3-1.2l3.067 3.067c-1.933 1.333-4 2-6.067 2z"></path>
</svg>
