<!-- Generated by IcoMoon.io -->
<svg version="1.1" xmlns="http://www.w3.org/2000/svg" width="32" height="32" viewBox="0 0 32 32">
<title>fabulous</title>
<path d="M26.867 7.933c-1.4-1.4-3.2-2.2-5.2-2.2-1.933 0-3.8 0.8-5.2 2.2l-0.467 0.533-0.533-0.533c-1.4-1.4-3.2-2.2-5.2-2.2-1.933 0-3.8 0.8-5.2 2.2-2.867 2.867-2.867 7.6 0 10.533l10.133 10.333c0.2 0.2 0.467 0.267 0.733 0.267s0.533-0.133 0.733-0.267l10.133-10.333c1.4-1.4 2.133-3.267 2.133-5.267s-0.667-3.867-2.067-5.267zM25.467 17l-9.467 9.667-9.467-9.667c-2.067-2.133-2.067-5.6 0-7.733 1-1 2.333-1.6 3.733-1.6s2.733 0.533 3.733 1.6l1.2 1.267c0.4 0.4 1.067 0.4 1.4 0l1.2-1.267c1-1 2.333-1.6 3.733-1.6s2.733 0.533 3.733 1.6c1 1 1.533 2.4 1.533 3.867s-0.4 2.867-1.333 3.867z"></path>
</svg>
