<!-- Generated by IcoMoon.io -->
<svg version="1.1" xmlns="http://www.w3.org/2000/svg" width="32" height="32" viewBox="0 0 32 32">
<title>favorite</title>
<path d="M29.2 11.133c-0.267-0.333-0.667-0.6-1.067-0.667l-7.333-1.067-3.267-6.667c-0.2-0.267-0.467-0.533-0.8-0.733-0.4-0.2-0.867-0.2-1.267-0.067s-0.733 0.467-0.933 0.867l-3.267 6.667-7.333 1.067c-0.333 0.067-0.667 0.2-0.933 0.467-0.667 0.667-0.6 1.733 0 2.333l5.333 5.2-1.267 7.333c-0.067 0.333 0 0.733 0.2 1.067 0.4 0.8 1.467 1.133 2.267 0.667l6.6-3.467 6.6 3.467c0.267 0.133 0.533 0.2 0.8 0.2h0.267c0.467-0.067 0.8-0.333 1.067-0.667s0.333-0.8 0.267-1.267l-1.267-7.333 5.333-5.2c0.267-0.267 0.467-0.6 0.467-0.933-0.067-0.467-0.2-0.867-0.467-1.267zM22.2 17.2c-0.4 0.4-0.6 0.933-0.467 1.467l1.2 6.8-6.933-3.6-6.933 3.6 1.2-6.8c0.067-0.533-0.067-1.067-0.467-1.467l-4.933-4.8 6.867-1c0.533-0.067 1-0.4 1.267-0.933l3-6.2 3.067 6.2c0.267 0.467 0.733 0.867 1.267 0.933l6.867 1-5 4.8z"></path>
</svg>
