<!-- Generated by IcoMoon.io -->
<svg version="1.1" xmlns="http://www.w3.org/2000/svg" width="32" height="32" viewBox="0 0 32 32">
<title>favorite-filling</title>
<path d="M14.533 2.8l-3.267 6.667-7.333 1.067c-0.333 0.067-0.667 0.2-0.933 0.467l-0.067 0.067c-0.533 0.667-0.533 1.667 0.133 2.267l5.333 5.2-1.267 7.333c-0.067 0.333 0 0.733 0.2 1.067l0.067 0.067c0.467 0.733 1.4 1 2.2 0.6l6.6-3.467 6.6 3.467c0.333 0.2 0.667 0.2 1.067 0.2h0.133c0.867-0.2 1.4-1 1.267-1.933l-1.267-7.333 5.333-5.2c0.267-0.267 0.4-0.6 0.467-0.933v-0.133c0.067-0.867-0.533-1.667-1.4-1.8l-7.333-1.067-3.267-6.667c-0.467-0.267-0.733-0.533-1.067-0.733-0.8-0.4-1.8-0.067-2.2 0.8z"></path>
</svg>
