<!-- Generated by IcoMoon.io -->
<svg version="1.1" xmlns="http://www.w3.org/2000/svg" width="32" height="32" viewBox="0 0 32 32">
<title>file-add</title>
<path d="M26.333 8.933l-5.867-5.867c-0.467-0.467-1-0.667-1.667-0.667h-11.467c-1.267-0.067-2.333 1-2.333 2.267v22.667c0 1.267 1.067 2.333 2.333 2.333h17.333c1.267 0 2.333-1.067 2.333-2.333v-16.8c0-0.6-0.267-1.2-0.667-1.6zM24.933 10.333h-5.6c-0.2 0-0.333-0.133-0.333-0.333v-5.6l5.933 5.933zM24.667 27.667h-17.333c-0.2 0-0.333-0.133-0.333-0.333v-22.667c0-0.2 0.133-0.333 0.333-0.333h9.667v5.667c0 1.267 1.067 2.333 2.333 2.333h5.667v15c0 0.2-0.133 0.333-0.333 0.333zM19.333 18.333h-2.333v-2.333c0-0.533-0.467-1-1-1s-1 0.467-1 1v2.333h-2.333c-0.533 0-1 0.467-1 1s0.467 1 1 1h2.333v2.333c0 0.533 0.467 1 1 1s1-0.467 1-1v-2.333h2.333c0.533 0 1-0.467 1-1s-0.467-1-1-1z"></path>
</svg>
