<!-- Generated by IcoMoon.io -->
<svg version="1.1" xmlns="http://www.w3.org/2000/svg" width="32" height="32" viewBox="0 0 32 32">
<title>file-open</title>
<path d="M28.8 14.067c-0.2-0.267-0.467-0.4-0.8-0.4h-0.333v-3c0-1.267-1.067-2.333-2.333-2.333h-9.267c-0.133 0-0.2-0.067-0.267-0.133l-1.2-2.067c-0.4-0.667-1.2-1.133-2-1.133h-7.267c-1.267 0-2.333 1.067-2.333 2.333v18.667c0 0.2 0.067 0.4 0.2 0.6 0.2 0.267 0.467 0.4 0.8 0.4h20c0.4 0 0.8-0.267 0.933-0.667l4-11.333c0.133-0.333 0.067-0.667-0.133-0.933zM5.333 7h7.267c0.133 0 0.2 0.067 0.267 0.133l1.2 2.067c0.4 0.667 1.2 1.133 2 1.133h9.267c0.2 0 0.333 0.133 0.333 0.333v3h-17.667c-0.4 0-0.8 0.267-0.933 0.667l-2.067 5.8v-12.8c0-0.2 0.133-0.333 0.333-0.333zM23.267 25h-17.867l3.267-9.333h17.867l-3.267 9.333z"></path>
</svg>
