<!-- Generated by IcoMoon.io -->
<svg version="1.1" xmlns="http://www.w3.org/2000/svg" width="32" height="32" viewBox="0 0 32 32">
<title>file-common-filling</title>
<path d="M26 2.667c0.533 0 1 0.467 1 1v24c0 0.933-0.733 1.667-1.667 1.667-0.4 0-0.733-0.133-1.067-0.4l-8.267-6.667-8.267 6.667c-0.667 0.533-1.667 0.467-2.267-0.133l-0.067-0.067c-0.267-0.267-0.4-0.667-0.4-1.067v-24c0-0.533 0.467-1 1-1h20zM17.333 14h-6.733c-0.533 0.067-0.933 0.467-0.933 1s0.467 1 1 1h6.733c0.533-0.067 0.933-0.467 0.933-1s-0.467-1-1-1zM20.667 8.667h-10.067c-0.533 0.067-0.933 0.467-0.933 1s0.467 1 1 1h10.067c0.533-0.067 0.933-0.467 0.933-1s-0.467-1-1-1z"></path>
</svg>
