<!-- Generated by IcoMoon.io -->
<svg version="1.1" xmlns="http://www.w3.org/2000/svg" width="32" height="32" viewBox="0 0 32 32">
<title>file</title>
<path d="M26.333 8.933l-5.867-5.867c-0.467-0.467-1-0.667-1.667-0.667h-11.467c-1.267-0.067-2.333 1-2.333 2.267v22.667c0 1.267 1.067 2.333 2.333 2.333h17.333c1.267 0 2.333-1.067 2.333-2.333v-16.8c0-0.6-0.267-1.2-0.667-1.6zM24.933 10.333c-0.067 0.067-0.133 0-0.267 0h-5.333c-0.2 0-0.333-0.133-0.333-0.333v-5.333c0-0.067 0-0.2-0.067-0.267 0 0 0.067 0 0.067 0.067l5.933 5.867zM24.667 27.667h-17.333c-0.2 0-0.333-0.133-0.333-0.333v-22.667c0-0.2 0.133-0.333 0.333-0.333h9.733c-0.067 0.133-0.067 0.2-0.067 0.333v5.333c0 1.267 1.067 2.333 2.333 2.333h5.333c0.133 0 0.2 0 0.333-0.067v15.067c0 0.2-0.133 0.333-0.333 0.333zM20 21.667h-9.333c-0.533 0-1 0.467-1 1s0.467 1 1 1h9.333c0.533 0 1-0.467 1-1s-0.467-1-1-1zM20 16.333h-9.333c-0.533 0-1 0.467-1 1s0.467 1 1 1h9.333c0.533 0 1-0.467 1-1s-0.467-1-1-1zM10.667 13h2.667c0.533 0 1-0.467 1-1s-0.467-1-1-1h-2.667c-0.533 0-1 0.467-1 1s0.467 1 1 1z"></path>
</svg>
