<!-- Generated by IcoMoon.io -->
<svg version="1.1" xmlns="http://www.w3.org/2000/svg" width="32" height="32" viewBox="0 0 32 32">
<title>file-common</title>
<path d="M26 2.333h-20c-0.533 0-1 0.467-1 1v23.933c0 0.4 0.133 0.733 0.4 1.067s0.667 0.533 1.133 0.6h0.2c0.4 0 0.733-0.133 1.067-0.4l8.267-6.667 8.267 6.667c0.267 0.267 0.667 0.4 1.067 0.4 0.933 0 1.667-0.733 1.667-1.667v-23.933c-0.067-0.533-0.533-1-1.067-1zM25 26.6l-8.4-6.8c-0.333-0.267-0.867-0.267-1.267 0l-8.333 6.8v-22.267h18v22.267zM10.667 10.667h10c0.533 0 1-0.467 1-1s-0.467-1-1-1h-10c-0.533 0-1 0.467-1 1s0.467 1 1 1zM10.667 16h6.667c0.533 0 1-0.467 1-1s-0.467-1-1-1h-6.667c-0.533 0-1 0.467-1 1s0.467 1 1 1z"></path>
</svg>
