<!-- Generated by IcoMoon.io -->
<svg version="1.1" xmlns="http://www.w3.org/2000/svg" width="32" height="32" viewBox="0 0 32 32">
<title>film</title>
<path d="M26.667 3h-21.333c-1.267 0-2.333 1.067-2.333 2.333v21.333c0 1.267 1.067 2.333 2.333 2.333h21.333c1.267 0 2.333-1.067 2.333-2.333v-21.333c0-1.267-1.067-2.333-2.333-2.333zM27 15h-4.667v-3.333h4.667v3.333zM20.333 15h-8.667v-10h8.667v10zM9.667 15h-4.667v-3.333h4.667v3.333zM5 17h4.667v3.333h-4.667v-3.333zM11.667 17h8.667v10h-8.667v-10zM22.333 17h4.667v3.333h-4.667v-3.333zM27 5.333v4.333h-4.667v-4.667h4.333c0.2 0 0.333 0.133 0.333 0.333zM5.333 5h4.333v4.667h-4.667v-4.333c0-0.2 0.133-0.333 0.333-0.333zM5 26.667v-4.333h4.667v4.667h-4.333c-0.2 0-0.333-0.133-0.333-0.333zM26.667 27h-4.333v-4.667h4.667v4.333c0 0.2-0.133 0.333-0.333 0.333z"></path>
</svg>
