<!-- Generated by IcoMoon.io -->
<svg version="1.1" xmlns="http://www.w3.org/2000/svg" width="32" height="32" viewBox="0 0 32 32">
<title>filter</title>
<path d="M27.267 4.2c-0.4-0.333-0.933-0.533-1.533-0.533h-19.533c-1.267 0-2.333 1.067-2.333 2.333 0 0.533 0.2 1.067 0.533 1.533l8 9.467v7.867c0 0.4 0.2 0.733 0.533 0.867l5.067 2.533c0.133 0.067 0.267 0.133 0.467 0.133s0.333-0.067 0.533-0.133c0.267-0.2 0.467-0.533 0.467-0.867v-10.467l8-9.467c0.4-0.467 0.6-1.067 0.533-1.667 0.067-0.6-0.2-1.2-0.733-1.6zM26.067 6.2l-8.267 9.733c-0.133 0.2-0.267 0.4-0.267 0.667v9.133l-3.067-1.533v-7.6c0-0.267-0.067-0.467-0.267-0.667l-8.267-9.733c0-0.067-0.067-0.133-0.067-0.2 0-0.2 0.133-0.333 0.333-0.333h19.533c0.067 0 0.133 0 0.2 0.067s0.133 0.2 0.133 0.2c0.067 0.067 0.067 0.2 0 0.267z"></path>
</svg>
