<!-- Generated by IcoMoon.io -->
<svg version="1.1" xmlns="http://www.w3.org/2000/svg" width="32" height="32" viewBox="0 0 32 32">
<title>folder-close</title>
<path d="M26.667 8.333h-10.6c-0.133 0-0.2-0.067-0.267-0.133l-1.2-2.067c-0.4-0.667-1.2-1.133-2-1.133h-7.267c-1.267 0-2.333 1.067-2.333 2.333v17.333c0 1.267 1.067 2.333 2.333 2.333h21.333c1.267 0 2.333-1.067 2.333-2.333v-14c0-1.267-1.067-2.333-2.333-2.333zM5.333 7h7.267c0.133 0 0.2 0.067 0.267 0.133l1.2 2.067c0.4 0.667 1.2 1.133 2 1.133h10.6c0.2 0 0.333 0.133 0.333 0.333v2.333h-22v-5.667c0-0.2 0.133-0.333 0.333-0.333zM26.667 25h-21.333c-0.2 0-0.333-0.133-0.333-0.333v-9.667h22v9.667c0 0.2-0.133 0.333-0.333 0.333z"></path>
</svg>
