<!-- Generated by IcoMoon.io -->
<svg version="1.1" xmlns="http://www.w3.org/2000/svg" width="32" height="32" viewBox="0 0 32 32">
<title>folder-filling</title>
<path d="M12.6 5c0.8 0 1.6 0.4 2 1.133l1.2 2.067c0.067 0.133 0.2 0.133 0.267 0.133h10.6c1.267 0 2.333 1.067 2.333 2.333v14c0 1.267-1.067 2.333-2.333 2.333h-21.333c-1.267 0-2.333-1.067-2.333-2.333v-17.333c0-1.267 1.067-2.333 2.333-2.333h7.267zM15.333 13h-7.4c-0.533 0.067-0.933 0.467-0.933 1s0.467 1 1 1h7.4c0.533-0.067 0.933-0.467 0.933-1s-0.467-1-1-1z"></path>
</svg>
