<!-- Generated by IcoMoon.io -->
<svg version="1.1" xmlns="http://www.w3.org/2000/svg" width="32" height="32" viewBox="0 0 32 32">
<title>forward</title>
<path d="M26.667 23.667h-21.333c-0.2 0-0.333-0.133-0.333-0.333v-13.333c0-0.2 0.133-0.333 0.333-0.333h18.733l-2.6 2.6c-0.4 0.4-0.4 1.067 0 1.467 0.2 0.2 0.467 0.333 0.733 0.333s0.533-0.133 0.733-0.333l4.533-4.533c0.4-0.4 0.4-1.067 0-1.467l-4.533-4.533c-0.4-0.4-1.067-0.4-1.467 0s-0.4 1.067 0 1.467l2.933 2.933h-19.067c-1.267 0-2.333 1.067-2.333 2.333v13.333c0 1.267 1.067 2.333 2.333 2.333h21.333c0.533 0 1-0.467 1-1s-0.467-0.933-1-0.933z"></path>
</svg>
