<!-- Generated by IcoMoon.io -->
<svg version="1.1" xmlns="http://www.w3.org/2000/svg" width="32" height="32" viewBox="0 0 32 32">
<title>fullscreen-expand</title>
<path d="M4.667 12.333c0.533 0 1-0.467 1-1v-4.267l5.867 5.867c0.2 0.2 0.467 0.267 0.733 0.267s0.533-0.067 0.733-0.267c0.4-0.4 0.4-1 0-1.4l-5.867-5.867h4.2c0.533 0 1-0.467 1-1s-0.467-1-1-1h-6.667c-0.133 0-0.267 0-0.333 0.067-0.267 0.133-0.467 0.333-0.6 0.533-0.067 0.133-0.067 0.267-0.067 0.4v6.667c0 0.533 0.467 1 1 1zM27.333 19.667c-0.533 0-1 0.467-1 1v4.267l-6.267-6.267c-0.4-0.4-1-0.4-1.4 0s-0.4 1 0 1.4l6.267 6.267h-4.267c-0.533 0-1 0.467-1 1s0.467 1 1 1h6.667c0.133 0 0.267 0 0.333-0.067 0.267-0.133 0.467-0.267 0.533-0.533 0.067-0.133 0.067-0.267 0.067-0.333v-6.733c0.067-0.533-0.4-1-0.933-1zM11.933 18.6l-6.267 6.267v-4.2c0-0.533-0.467-1-1-1s-1 0.467-1 1v6.667c0 0.133 0 0.267 0.067 0.333 0.133 0.267 0.267 0.467 0.533 0.533 0.133 0.067 0.267 0.067 0.333 0.067h6.667c0.533 0 1-0.467 1-1s-0.467-1-1-1h-4.267l6.267-6.267c0.4-0.4 0.4-1 0-1.4s-0.933-0.333-1.333 0zM28.267 4.333c0-0.067 0-0.067 0 0-0.133-0.267-0.333-0.467-0.533-0.533-0.133-0.067-0.267-0.067-0.333-0.067h-6.733c-0.533 0-1 0.467-1 1s0.467 1 1 1h4.267l-5.867 5.867c-0.4 0.4-0.4 1 0 1.4 0.2 0.2 0.467 0.267 0.733 0.267s0.533-0.067 0.733-0.267l5.867-5.867v4.2c0 0.533 0.467 1 1 1s1-0.467 1-1v-6.667c-0.067-0.133-0.067-0.267-0.133-0.333z"></path>
</svg>
