<!-- Generated by IcoMoon.io -->
<svg version="1.1" xmlns="http://www.w3.org/2000/svg" width="32" height="32" viewBox="0 0 32 32">
<title>fullscreen-expand-filling</title>
<path d="M12.4 4.4c-0.4-0.133-0.8-0.067-1.067 0.2l-2.4 2.4-4-3.933c-0.533-0.533-1.333-0.533-1.867 0s-0.533 1.333 0 1.867l3.933 3.933-2.4 2.4c-0.267 0.267-0.4 0.733-0.2 1.067 0.133 0.4 0.533 0.6 0.933 0.6h6.667c0.533 0 1-0.467 1-1v-6.6c0-0.4-0.267-0.8-0.6-0.933zM25 23.067l2.4-2.4c0.267-0.267 0.4-0.733 0.2-1.067s-0.533-0.6-0.933-0.6h-6.667c-0.533 0-1 0.467-1 1v6.667c0 0.4 0.267 0.8 0.6 0.933 0.133 0.067 0.267 0.067 0.4 0.067 0.267 0 0.533-0.133 0.733-0.267l2.4-2.4 3.933 3.933c0.267 0.267 0.6 0.4 0.933 0.4s0.667-0.133 0.933-0.4c0.533-0.533 0.533-1.333 0-1.867l-3.933-4zM12 19h-6.667c-0.4 0-0.8 0.267-0.933 0.6-0.133 0.4-0.067 0.8 0.2 1.067l2.4 2.4-3.933 3.933c-0.533 0.533-0.533 1.333 0 1.867 0.267 0.333 0.6 0.467 0.933 0.467s0.667-0.133 0.933-0.4l3.933-3.933 2.4 2.4c0.2 0.2 0.467 0.267 0.733 0.267 0.133 0 0.267 0 0.4-0.067 0.4-0.133 0.6-0.533 0.6-0.933v-6.667c0-0.533-0.467-1-1-1zM20 13h6.667c0.4 0 0.8-0.267 0.933-0.6s0.067-0.8-0.2-1.067l-2.4-2.4 3.933-3.933c0.533-0.533 0.533-1.333 0-1.867s-1.333-0.533-1.867 0l-3.933 3.933-2.4-2.4c-0.267-0.267-0.733-0.4-1.067-0.2-0.4 0.133-0.6 0.533-0.6 0.933v6.667c-0.067 0.467 0.4 0.933 0.933 0.933z"></path>
</svg>
