<!-- Generated by IcoMoon.io -->
<svg version="1.1" xmlns="http://www.w3.org/2000/svg" width="32" height="32" viewBox="0 0 32 32">
<title>good</title>
<path d="M27.533 12.333c-0.667-0.733-1.6-1.133-2.533-1.133h-5.667v-3.667c0-1.4-0.933-2.667-2.733-3.667-0.533-0.333-1.2-0.4-1.8-0.267s-1.133 0.533-1.467 1.067c-0.067 0.067-0.067 0.133-0.133 0.2l-3.933 8.8h-2.867c-1.867 0-3.4 1.467-3.4 3.333v8.067c0 1.8 1.533 3.333 3.4 3.333h17c1.667 0 3.067-1.2 3.333-2.8l1.6-10.533c0.133-1.067-0.2-2-0.8-2.733zM9 26.333h-2.6c-0.8 0-1.4-0.6-1.4-1.333v-8c0-0.733 0.6-1.333 1.4-1.333h2.6v10.667zM26.333 14.667l-1.667 10.533c-0.133 0.667-0.667 1.133-1.333 1.133h-12.333v-11.6l4.067-9.067c0.067-0.133 0.133-0.133 0.2-0.133s0.133 0 0.267 0.067c0.8 0.467 1.733 1.2 1.733 2v4.667c0 0.533 0.467 1 1 1h6.667c0.4 0 0.8 0.133 1.067 0.467 0.267 0.2 0.4 0.6 0.333 0.933z"></path>
</svg>
