<!-- Generated by IcoMoon.io -->
<svg version="1.1" xmlns="http://www.w3.org/2000/svg" width="32" height="32" viewBox="0 0 32 32">
<title>help</title>
<path d="M16 2.333c-7.533 0-13.667 6.133-13.667 13.667s6.133 13.667 13.667 13.667 13.667-6.133 13.667-13.667-6.133-13.667-13.667-13.667zM16 27.667c-6.4 0-11.667-5.267-11.667-11.667s5.267-11.667 11.667-11.667 11.667 5.267 11.667 11.667-5.267 11.667-11.667 11.667zM14.667 23.333c0 0.736 0.597 1.333 1.333 1.333s1.333-0.597 1.333-1.333v0c0-0.736-0.597-1.333-1.333-1.333s-1.333 0.597-1.333 1.333v0zM16 7.667c-2.4 0-4.333 1.933-4.333 4.333 0 0.533 0.467 1 1 1s1-0.467 1-1c0-1.267 1.067-2.333 2.333-2.333s2.333 1.067 2.333 2.333c0 0.867-1.667 2.4-2.867 3.133-0.267 0.2-0.467 0.533-0.467 0.867v3.333c0 0.533 0.467 1 1 1s1-0.467 1-1v-2.8c1.067-0.8 3.333-2.6 3.333-4.533 0-2.4-1.933-4.333-4.333-4.333z"></path>
</svg>
