<!-- Generated by IcoMoon.io -->
<svg version="1.1" xmlns="http://www.w3.org/2000/svg" width="32" height="32" viewBox="0 0 32 32">
<title>help-filling</title>
<path d="M16 2.333c7.533 0 13.667 6.133 13.667 13.667s-6.133 13.667-13.667 13.667-13.667-6.133-13.667-13.667 6.133-13.667 13.667-13.667zM16 22c-0.733 0-1.333 0.6-1.333 1.333s0.6 1.333 1.333 1.333 1.333-0.6 1.333-1.333-0.6-1.333-1.333-1.333zM16 7.667c-2.4 0-4.333 1.933-4.333 4.333 0 0.533 0.467 1 1 1s1-0.467 1-1c0-1.267 1.067-2.333 2.333-2.333s2.333 1.067 2.333 2.333c0 0.067 0 0.2-0.067 0.333-0.2 0.467-0.6 1-1.267 1.6-0.333 0.333-0.667 0.6-1.067 0.867-0.067 0.067-0.2 0.133-0.267 0.2l-0.2 0.133c-0.267 0.2-0.467 0.533-0.467 0.867v3.4c0.067 0.533 0.467 0.933 1 0.933h0.067c0.533-0.067 0.933-0.467 0.933-1v-2.8l0.4-0.333c0.333-0.267 0.6-0.533 0.933-0.8 0.867-0.8 1.467-1.533 1.8-2.333 0.133-0.333 0.2-0.733 0.2-1.067 0-2.4-1.933-4.333-4.333-4.333z"></path>
</svg>
