<!-- Generated by IcoMoon.io -->
<svg version="1.1" xmlns="http://www.w3.org/2000/svg" width="32" height="32" viewBox="0 0 32 32">
<title>hide</title>
<path d="M28.667 17.933l-2.733-2.733c1.067-1 2.067-2.133 2.867-3.4 0.267-0.467 0.133-1.067-0.333-1.4-0.467-0.267-1.067-0.133-1.4 0.333-2.4 3.933-6.533 6.267-11.133 6.267-4.533 0-8.733-2.333-11.067-6.2-0.267-0.467-0.933-0.6-1.4-0.333s-0.6 0.933-0.333 1.4c0.8 1.267 1.733 2.4 2.867 3.4l-2.667 2.667c-0.4 0.4-0.4 1 0 1.4 0.2 0.2 0.467 0.267 0.733 0.267s0.533-0.067 0.733-0.267l2.867-2.867c1.2 0.8 2.533 1.467 3.933 1.867l-1.067 4.067c-0.133 0.533 0.2 1.067 0.733 1.2 0.067 0 0.2 0.067 0.267 0.067 0.467 0 0.867-0.267 0.933-0.733l1.133-4.133c0.8 0.133 1.6 0.2 2.467 0.2s1.733-0.067 2.6-0.2l1.133 4.133c0.133 0.467 0.533 0.733 0.933 0.733 0.067 0 0.2 0 0.267-0.067 0.533-0.133 0.867-0.667 0.733-1.2l-1.067-4.133c1.4-0.4 2.667-1.067 3.867-1.867l2.867 2.867c0.2 0.2 0.467 0.267 0.733 0.267s0.533-0.067 0.733-0.267c0.2-0.333 0.2-0.933-0.2-1.333z"></path>
</svg>
