<!-- Generated by IcoMoon.io -->
<svg version="1.1" xmlns="http://www.w3.org/2000/svg" width="32" height="32" viewBox="0 0 32 32">
<title>history</title>
<path d="M12.867 27.667h-6.867c-0.2 0-0.333-0.133-0.333-0.333v-22.667c0-0.2 0.133-0.333 0.333-0.333h18c0.2 0 0.333 0.133 0.333 0.333v6.867c0 0.533 0.467 1 1 1s1-0.467 1-1v-6.867c0-1.267-1.067-2.333-2.333-2.333h-18c-1.267 0-2.333 1.067-2.333 2.333v22.667c0 1.267 1.067 2.333 2.333 2.333h6.867c0.533 0 1-0.467 1-1s-0.467-1-1-1zM22 14.333c-4.2 0-7.667 3.467-7.667 7.667s3.467 7.667 7.667 7.667 7.667-3.467 7.667-7.667-3.467-7.667-7.667-7.667zM22 27.667c-3.133 0-5.667-2.533-5.667-5.667s2.533-5.667 5.667-5.667 5.667 2.533 5.667 5.667-2.533 5.667-5.667 5.667zM25.067 22.4l-2.067-0.933v-2.8c0-0.533-0.467-1-1-1s-1 0.467-1 1v3.467c0 0.4 0.267 0.733 0.6 0.933l2.667 1.2c0.133 0.067 0.267 0.067 0.4 0.067 0.4 0 0.733-0.2 0.933-0.6 0.2-0.533 0-1.067-0.533-1.333zM21.667 9.333c0-0.533-0.467-1-1-1h-11.333c-0.533 0-1 0.467-1 1s0.467 1 1 1h11.333c0.533 0 1-0.467 1-1zM9.333 13.667c-0.533 0-1 0.467-1 1s0.467 1 1 1h3.333c0.533 0 1-0.467 1-1s-0.467-1-1-1h-3.333z"></path>
</svg>
