<!-- Generated by IcoMoon.io -->
<svg version="1.1" xmlns="http://www.w3.org/2000/svg" width="32" height="32" viewBox="0 0 32 32">
<title>history-filling</title>
<path d="M24 2.333c1.267 0 2.267 1 2.333 2.2v9.2c-1.267-0.667-2.8-1.067-4.333-1.067-5.133 0-9.333 4.2-9.333 9.333 0 3.2 1.6 6 4 7.667h-10.667c-1.267 0-2.267-1-2.333-2.2v-22.8c0-1.267 1-2.267 2.2-2.333h18.133zM11.333 13.667h-3.4c-0.533 0.067-0.933 0.467-0.933 1s0.4 0.933 0.933 1h3.467c0.533-0.067 0.933-0.467 0.933-1s-0.467-1-1-1zM21.333 8.333h-13.4c-0.533 0.067-0.933 0.467-0.933 1s0.4 0.933 0.933 1h13.467c0.533-0.067 0.933-0.467 0.933-1s-0.467-1-1-1zM22.333 14.667c4.267 0 7.667 3.4 7.667 7.667s-3.4 7.667-7.667 7.667-7.667-3.4-7.667-7.667 3.4-7.667 7.667-7.667zM22.333 18c-0.533 0-1 0.467-1 1v3.533c0.067 0.333 0.267 0.667 0.6 0.8l2.667 1.2 0.067 0.067c0.467 0.133 1-0.067 1.2-0.533l0.067-0.067c0.133-0.467-0.067-1-0.533-1.2l-2.067-0.933v-2.933c-0.067-0.533-0.467-0.933-1-0.933z"></path>
</svg>
