<!-- Generated by IcoMoon.io -->
<svg version="1.1" xmlns="http://www.w3.org/2000/svg" width="32" height="32" viewBox="0 0 32 32">
<title>home-filling</title>
<path d="M28.933 12.4l-1-0.867c-2.467-2.067-5.8-4.933-10-8.533l-0.4-0.333c-0.867-0.733-2.2-0.733-3.067 0l-4.733 4.067c-2.667 2.267-4.867 4.133-6.6 5.6-0.533 0.4-0.8 1-0.8 1.667v0.133c0.067 1.2 1.067 2.067 2.2 2.067h1.467v11.2c0 0.933 0.733 1.667 1.667 1.667h5.133c0.867-0.067 1.533-0.8 1.533-1.667v-5.8c0-0.4 0.267-0.667 0.667-0.667h2c0.4 0 0.667 0.267 0.667 0.667v5.8c0 0.933 0.733 1.667 1.667 1.667h5.133c0.867-0.067 1.533-0.8 1.533-1.667v-11.2h1.467c1.2 0 2.2-1 2.2-2.2 0-0.667-0.267-1.2-0.733-1.6z"></path>
</svg>
