<!-- Generated by IcoMoon.io -->
<svg version="1.1" xmlns="http://www.w3.org/2000/svg" width="32" height="32" viewBox="0 0 32 32">
<title>home</title>
<path d="M28.867 12.333c-2.667-2.2-6.467-5.467-11.333-9.667-0.867-0.733-2.2-0.733-3.067 0-4.867 4.2-8.667 7.467-11.333 9.667-0.467 0.467-0.8 1.067-0.8 1.667 0 1.2 1 2.2 2.2 2.2h1.467v11.2c0 0.933 0.733 1.667 1.667 1.667h5c0.933 0 1.667-0.733 1.667-1.667v-6.467h3.333v6.467c0 0.933 0.733 1.667 1.667 1.667h5c0.933 0 1.667-0.733 1.667-1.667v-11.2h1.467c1.2 0 2.2-1 2.2-2.2 0-0.667-0.333-1.267-0.8-1.667zM27.467 14.2h-1.8c-0.933 0-1.667 0.733-1.667 1.667v11.2h-4.333v-6.4c0-0.933-0.733-1.667-1.667-1.667h-4c-0.933 0-1.667 0.733-1.667 1.667v6.467h-4.333v-11.267c0-0.933-0.733-1.667-1.667-1.667h-1.8c-0.133 0-0.2-0.067-0.2-0.2 0-0.067 0.067-0.133 0.067-0.2 2.667-2.2 6.467-5.467 11.333-9.667 0.133-0.133 0.333-0.133 0.467 0 4.867 4.2 8.667 7.467 11.333 9.667 0.067 0.067 0.067 0.067 0.067 0.133 0.067 0.2-0.067 0.267-0.133 0.267z"></path>
</svg>
