<!-- Generated by IcoMoon.io -->
<svg version="1.1" xmlns="http://www.w3.org/2000/svg" width="32" height="32" viewBox="0 0 32 32">
<title>image-text</title>
<path d="M25.6 3h-19.2c-1.867 0-3.4 1.533-3.4 3.4v19.267c0 1.867 1.533 3.4 3.4 3.4h19.267c1.867 0 3.4-1.533 3.4-3.4v-19.267c-0.067-1.867-1.6-3.4-3.467-3.4zM27 25.6c0 0.733-0.6 1.4-1.4 1.4h-19.2c-0.733 0-1.4-0.6-1.4-1.4v-19.2c0-0.733 0.6-1.4 1.4-1.4h19.267c0.733 0 1.4 0.6 1.4 1.4v19.2zM9.333 16.333h4c0.933 0 1.667-0.733 1.667-1.667v-4c0-0.933-0.733-1.667-1.667-1.667h-4c-0.933 0-1.667 0.733-1.667 1.667v4c0 0.933 0.733 1.667 1.667 1.667zM9.667 11h3.333v3.333h-3.333v-3.333zM23.333 13.667h-5.333c-0.533 0-1 0.467-1 1s0.467 1 1 1h5.333c0.533 0 1-0.467 1-1s-0.467-1-1-1zM23.333 19.667h-14.667c-0.533 0-1 0.467-1 1s0.467 1 1 1h14.667c0.533 0 1-0.467 1-1s-0.467-1-1-1z"></path>
</svg>
