<!-- Generated by IcoMoon.io -->
<svg version="1.1" xmlns="http://www.w3.org/2000/svg" width="32" height="32" viewBox="0 0 32 32">
<title>import</title>
<path d="M20.867 27h-15.533c-0.2 0-0.333-0.133-0.333-0.333v-21.333c0-0.2 0.133-0.333 0.333-0.333h9.667v5c0 1.267 1.067 2.333 2.333 2.333h5v1.2c0 0.533 0.467 1 1 1s1-0.467 1-1v-4.2c0-0.267-0.133-0.533-0.267-0.733l-5.333-5.333c-0.2-0.2-0.467-0.267-0.733-0.267h-12.667c-1.267 0-2.333 1.067-2.333 2.333v21.333c0 1.267 1.067 2.333 2.333 2.333h15.533c0.533 0 1-0.467 1-1s-0.467-1-1-1zM22.333 9.8v0.533h-5c-0.2 0-0.333-0.133-0.333-0.333v-5h0.6l4.733 4.8zM26.667 18.667h-7.933l1.6-1.6c0.4-0.4 0.4-1 0-1.4s-1-0.4-1.4 0l-3.333 3.333c-0.4 0.4-0.4 1 0 1.4l3.333 3.333c0.2 0.2 0.467 0.267 0.733 0.267s0.533-0.067 0.733-0.267c0.4-0.4 0.4-1 0-1.4l-1.667-1.667h7.933c0.533 0 1-0.467 1-1s-0.467-1-1-1z"></path>
</svg>
