<!-- Generated by IcoMoon.io -->
<svg version="1.1" xmlns="http://www.w3.org/2000/svg" width="32" height="32" viewBox="0 0 32 32">
<title>layers</title>
<path d="M3.467 11l12 6c0.133 0.067 0.333 0.133 0.533 0.133s0.333-0.067 0.533-0.133l12-6c0.4-0.2 0.6-0.6 0.6-1s-0.267-0.8-0.6-1l-12-6c-0.333-0.133-0.667-0.133-1 0l-12 6c-0.4 0.2-0.6 0.6-0.6 1s0.2 0.8 0.533 1zM16 5.267l9.467 4.733-9.467 4.733-9.467-4.733 9.467-4.733zM27.467 21l-11.467 5.733-11.467-5.733c-0.533-0.267-1.2-0.067-1.533 0.533-0.267 0.533-0.067 1.2 0.533 1.533l12 6c0.133 0.067 0.333 0.133 0.533 0.133s0.333-0.067 0.533-0.133l12-6c0.533-0.267 0.8-0.933 0.533-1.533-0.4-0.6-1.067-0.8-1.667-0.533zM27.467 15l-11.467 5.733-11.467-5.733c-0.533-0.267-1.2-0.067-1.533 0.533-0.267 0.533-0.067 1.2 0.533 1.533l12 6c0.133 0.067 0.333 0.133 0.533 0.133s0.333-0.067 0.533-0.133l12-6c0.533-0.267 0.8-0.933 0.533-1.533-0.4-0.6-1.067-0.8-1.667-0.533z"></path>
</svg>
