<!-- Generated by IcoMoon.io -->
<svg version="1.1" xmlns="http://www.w3.org/2000/svg" width="32" height="32" viewBox="0 0 32 32">
<title>layout</title>
<path d="M26.667 3h-21.333c-1.267 0-2.333 1.067-2.333 2.333v21.333c0 1.267 1.067 2.333 2.333 2.333h21.333c1.267 0 2.333-1.067 2.333-2.333v-21.333c0-1.267-1.067-2.333-2.333-2.333zM5.333 5h21.333c0.2 0 0.333 0.133 0.333 0.333v6.667h-22v-6.667c0-0.2 0.133-0.333 0.333-0.333zM5 26.667v-12.667h5.667v13h-5.333c-0.2 0-0.333-0.133-0.333-0.333zM26.667 27h-14v-13h14.333v12.667c0 0.2-0.133 0.333-0.333 0.333z"></path>
</svg>
