<!-- Generated by IcoMoon.io -->
<svg version="1.1" xmlns="http://www.w3.org/2000/svg" width="32" height="32" viewBox="0 0 32 32">
<title>link</title>
<path d="M26.933 5.133c-2.733-2.733-7.2-2.8-10-0.067l-2.133 2.133c-0.4 0.4-0.4 1 0 1.4s1 0.4 1.4 0l2.133-2.133c2-1.933 5.2-1.933 7.2 0.067s2 5.267 0.067 7.267l-3.667 3.733c-1.067 1.067-2.533 1.6-4 1.533-1.467-0.133-2.867-0.867-3.733-2.067-0.333-0.467-0.933-0.533-1.4-0.2s-0.533 0.933-0.2 1.4c1.267 1.667 3.133 2.733 5.2 2.867h0.533c1.867 0 3.733-0.733 5.067-2.133l3.667-3.733c2.6-2.8 2.6-7.333-0.133-10.067zM15.8 23.467l-2.067 2.133c-2 1.933-5.2 1.933-7.2-0.067s-2-5.267-0.067-7.267l3.667-3.733c1.067-1.067 2.533-1.6 4-1.533 1.467 0.133 2.867 0.867 3.733 2.067 0.333 0.467 0.933 0.533 1.4 0.2s0.533-0.933 0.2-1.4c-1.267-1.667-3.133-2.733-5.2-2.867s-4.067 0.6-5.533 2.067l-3.667 3.733c-2.667 2.8-2.667 7.333 0.067 10.067 1.4 1.4 3.2 2.067 5.067 2.067 1.8 0 3.6-0.667 5-2l2.067-2.133c0.4-0.4 0.4-1 0-1.4-0.467-0.333-1.067-0.333-1.467 0.067z"></path>
</svg>
