<?xml version="1.0" standalone="no"?><!DOCTYPE svg PUBLIC "-//W3C//DTD SVG 1.1//EN" "http://www.w3.org/Graphics/SVG/1.1/DTD/svg11.dtd"><svg t="1658930183602" class="icon" viewBox="0 0 1024 1024" version="1.1" xmlns="http://www.w3.org/2000/svg" p-id="5673" xmlns:xlink="http://www.w3.org/1999/xlink" width="200" height="200"><defs><style type="text/css"></style></defs><path d="M512 0a51.2 51.2 0 0 1 51.2 51.2v153.6a51.2 51.2 0 0 1-102.4 0V51.2a51.2 51.2 0 0 1 51.2-51.2z m0 768a51.2 51.2 0 0 1 51.2 51.2v153.6a51.2 51.2 0 0 1-102.4 0v-153.6a51.2 51.2 0 0 1 51.2-51.2z m512-256a51.2 51.2 0 0 1-51.2 51.2h-153.6a51.2 51.2 0 0 1 0-102.4h153.6a51.2 51.2 0 0 1 51.2 51.2zM256 512a51.2 51.2 0 0 1-51.2 51.2H51.2a51.2 51.2 0 0 1 0-102.4h153.6a51.2 51.2 0 0 1 51.2 51.2z m618.0352 362.0352a51.2 51.2 0 0 1-72.3968 0l-108.5952-108.5952a51.2 51.2 0 0 1 72.3968-72.3968l108.5952 108.544a51.2 51.2 0 0 1 0 72.448zM330.9568 330.9568a51.2 51.2 0 0 1-72.3968 0l-108.544-108.544a51.2 51.2 0 1 1 72.3968-72.448l108.544 108.5952a51.2 51.2 0 0 1 0 72.3968zM150.016 874.0352a51.2 51.2 0 0 1 0-72.3968l108.5952-108.5952a51.2 51.2 0 1 1 72.3968 72.3968l-108.544 108.5952a51.2 51.2 0 0 1-72.448 0zM693.0432 330.9568a51.2 51.2 0 0 1 0-72.3968l108.544-108.5952a51.2 51.2 0 0 1 72.448 72.3968L765.44 330.9568a51.2 51.2 0 0 1-72.3968 0z" p-id="5674"></path></svg>