<!-- Generated by IcoMoon.io -->
<svg version="1.1" xmlns="http://www.w3.org/2000/svg" width="32" height="32" viewBox="0 0 32 32">
<title>jiazai</title>
<path d="M16 1.92c0.707 0 1.28 0.573 1.28 1.28v0 3.84c0 0.707-0.573 1.28-1.28 1.28s-1.28-0.573-1.28-1.28v0-3.84c0-0.707 0.573-1.28 1.28-1.28v0zM23.040 3.806c0.385 0.225 0.64 0.637 0.64 1.108 0 0.236-0.064 0.456-0.175 0.646l0.003-0.006-1.92 3.326c-0.224 0.389-0.638 0.647-1.113 0.647-0.707 0-1.28-0.573-1.28-1.28 0-0.239 0.065-0.462 0.179-0.653l-0.003 0.006 1.92-3.326c0.225-0.385 0.637-0.64 1.108-0.64 0.236 0 0.456 0.064 0.646 0.175l-0.006-0.003zM28.194 8.96c0.108 0.184 0.171 0.404 0.171 0.64 0 0.471-0.255 0.883-0.634 1.105l-0.006 0.003-3.326 1.92c-0.182 0.105-0.4 0.167-0.633 0.167-0.707 0-1.28-0.573-1.28-1.28 0-0.468 0.251-0.878 0.627-1.101l0.006-0.003 3.326-1.92c0.184-0.108 0.404-0.171 0.64-0.171 0.471 0 0.883 0.255 1.105 0.634l0.003 0.006zM30.080 16c0 0.707-0.573 1.28-1.28 1.28v0h-3.84c-0.707 0-1.28-0.573-1.28-1.28s0.573-1.28 1.28-1.28v0h3.84c0.707 0 1.28 0.573 1.28 1.28v0zM28.194 23.040c-0.225 0.385-0.637 0.64-1.108 0.64-0.236 0-0.456-0.064-0.646-0.175l0.006 0.003-3.326-1.92c-0.389-0.224-0.647-0.638-0.647-1.113 0-0.707 0.573-1.28 1.28-1.28 0.239 0 0.462 0.065 0.653 0.179l-0.006-0.003 3.326 1.92c0.385 0.225 0.64 0.637 0.64 1.108 0 0.236-0.064 0.456-0.175 0.646l0.003-0.006zM23.040 28.194c-0.184 0.108-0.404 0.171-0.64 0.171-0.471 0-0.883-0.255-1.105-0.634l-0.003-0.006-1.92-3.326c-0.105-0.182-0.167-0.4-0.167-0.633 0-0.707 0.573-1.28 1.28-1.28 0.468 0 0.878 0.251 1.101 0.627l0.003 0.006 1.92 3.326c0.108 0.184 0.171 0.404 0.171 0.64 0 0.471-0.255 0.883-0.634 1.105l-0.006 0.003zM16 30.080c-0.707 0-1.28-0.573-1.28-1.28v0-3.84c0-0.707 0.573-1.28 1.28-1.28s1.28 0.573 1.28 1.28v0 3.84c0 0.707-0.573 1.28-1.28 1.28v0zM8.96 28.194c-0.385-0.225-0.64-0.637-0.64-1.108 0-0.236 0.064-0.456 0.175-0.646l-0.003 0.006 1.92-3.326c0.224-0.389 0.638-0.647 1.113-0.647 0.707 0 1.28 0.573 1.28 1.28 0 0.239-0.065 0.462-0.179 0.653l0.003-0.006-1.92 3.326c-0.225 0.385-0.637 0.64-1.108 0.64-0.236 0-0.456-0.064-0.646-0.175l0.006 0.003zM3.806 23.040c-0.108-0.184-0.171-0.404-0.171-0.64 0-0.471 0.255-0.883 0.634-1.105l0.006-0.003 3.326-1.92c0.182-0.105 0.4-0.167 0.633-0.167 0.707 0 1.28 0.573 1.28 1.28 0 0.468-0.251 0.878-0.627 1.101l-0.006 0.003-3.326 1.92c-0.184 0.108-0.404 0.171-0.64 0.171-0.471 0-0.883-0.255-1.105-0.634l-0.003-0.006zM1.92 16c0-0.707 0.573-1.28 1.28-1.28h3.84c0.707 0 1.28 0.573 1.28 1.28s-0.573 1.28-1.28 1.28v0h-3.84c-0.707 0-1.28-0.573-1.28-1.28v0zM3.806 8.96c0.225-0.385 0.637-0.64 1.108-0.64 0.236 0 0.456 0.064 0.646 0.175l-0.006-0.003 3.326 1.92c0.389 0.224 0.647 0.638 0.647 1.113 0 0.707-0.573 1.28-1.28 1.28-0.239 0-0.462-0.065-0.653-0.179l0.006 0.003-3.326-1.92c-0.385-0.225-0.64-0.637-0.64-1.108 0-0.236 0.064-0.456 0.175-0.646l-0.003 0.006zM8.96 3.806c0.184-0.108 0.404-0.171 0.64-0.171 0.471 0 0.883 0.255 1.105 0.634l0.003 0.006 1.92 3.326c0.105 0.182 0.167 0.4 0.167 0.633 0 0.707-0.573 1.28-1.28 1.28-0.468 0-0.878-0.251-1.101-0.627l-0.003-0.006-1.92-3.326c-0.108-0.184-0.171-0.404-0.171-0.64 0-0.471 0.255-0.883 0.634-1.105l0.006-0.003z"></path>
</svg>
