<!-- Generated by IcoMoon.io -->
<svg version="1.1" xmlns="http://www.w3.org/2000/svg" width="32" height="32" viewBox="0 0 32 32">
<title>lock</title>
<path d="M24.533 13h-1.933v-3.8c0-3.4-2.867-6.2-6.333-6.2s-6.333 2.8-6.333 6.2v3.8h-2.467c-1.733 0-3.133 1.4-3.133 3.133v9.733c0 1.733 1.4 3.133 3.133 3.133h17.067c1.733 0 3.133-1.4 3.133-3.133v-9.733c0-1.733-1.4-3.133-3.133-3.133zM11.933 9.2c0-2.333 1.933-4.2 4.333-4.2s4.333 1.867 4.333 4.2v3.8h-8.667v-3.8zM25.667 25.867c0 0.6-0.533 1.133-1.133 1.133h-17.067c-0.6 0-1.133-0.533-1.133-1.133v-9.733c0-0.6 0.533-1.133 1.133-1.133h17.067c0.6 0 1.133 0.533 1.133 1.133v9.733zM16 17c-0.533 0-1 0.467-1 1v3.333c0 0.533 0.467 1 1 1s1-0.467 1-1v-3.333c0-0.533-0.467-1-1-1z"></path>
</svg>
