<!-- Generated by IcoMoon.io -->
<svg version="1.1" xmlns="http://www.w3.org/2000/svg" width="32" height="32" viewBox="0 0 32 32">
<title>map-filling</title>
<path d="M16 2.333c6.067 0 11 5 11 11.067 0 3.733-2 7.4-5.267 10.933-1.133 1.2-2.333 2.267-3.533 3.267-0.4 0.333-0.8 0.667-1.2 0.867l-0.2 0.133-0.267 0.2c-0.333 0.2-0.8 0.2-1.133 0-0.067-0.067-0.133-0.133-0.267-0.2l-0.4-0.267c-0.267-0.2-0.6-0.467-0.933-0.733-1.2-1-2.4-2.067-3.533-3.267-3.267-3.467-5.267-7.2-5.267-10.933 0-6.067 4.933-11.067 11-11.067zM16 9.333c-2 0-3.667 1.667-3.667 3.667s1.667 3.667 3.667 3.667 3.667-1.667 3.667-3.667-1.667-3.667-3.667-3.667z"></path>
</svg>
