<!-- Generated by IcoMoon.io -->
<svg version="1.1" xmlns="http://www.w3.org/2000/svg" width="32" height="32" viewBox="0 0 32 32">
<title>map</title>
<path d="M16 2.333c-6.067 0-11 5-11 11.067 0 8.267 10 15.133 10.467 15.4 0.2 0.133 0.333 0.2 0.533 0.2s0.4-0.067 0.533-0.2c0.4-0.267 10.467-7.133 10.467-15.4 0-6.067-4.933-11.067-11-11.067zM16 26.8c-2.067-1.533-9-7.133-9-13.333 0-5 4.067-9.067 9-9.067s9 4.067 9 9.067c0 6.133-6.933 11.8-9 13.333zM16 9.667c-2.4 0-4.333 1.933-4.333 4.333s1.933 4.333 4.333 4.333 4.333-1.933 4.333-4.333-1.933-4.333-4.333-4.333zM16 16.333c-1.267 0-2.333-1.067-2.333-2.333s1.067-2.333 2.333-2.333 2.333 1.067 2.333 2.333-1.067 2.333-2.333 2.333z"></path>
</svg>
