<!-- Generated by IcoMoon.io -->
<svg version="1.1" xmlns="http://www.w3.org/2000/svg" width="32" height="32" viewBox="0 0 32 32">
<title>meh-filling</title>
<path d="M16 2.333c7.533 0 13.667 6.133 13.667 13.667s-6.133 13.667-13.667 13.667-13.667-6.133-13.667-13.667 6.133-13.667 13.667-13.667zM10.133 20.333h-0.067c-0.533 0.067-0.933 0.467-0.933 1s0.467 1 1 1h11.733c0.533-0.067 0.933-0.467 0.933-1s-0.467-1-1-1h-11.667zM11.333 11.333c-0.733 0-1.333 0.6-1.333 1.333v2.067c0.067 0.667 0.6 1.267 1.333 1.267s1.333-0.6 1.333-1.333v-2.067c-0.067-0.733-0.6-1.267-1.333-1.267zM20.667 11.333c-0.733 0-1.333 0.6-1.333 1.333v2.067c0.067 0.667 0.6 1.267 1.333 1.267s1.333-0.6 1.333-1.333v-2.067c-0.067-0.733-0.6-1.267-1.333-1.267z"></path>
</svg>
