<!-- Generated by IcoMoon.io -->
<svg version="1.1" xmlns="http://www.w3.org/2000/svg" width="32" height="32" viewBox="0 0 32 32">
<title>meh</title>
<path d="M16 29.667c-7.533 0-13.667-6.133-13.667-13.667s6.133-13.667 13.667-13.667 13.667 6.133 13.667 13.667-6.133 13.667-13.667 13.667zM16 4.333c-6.4 0-11.667 5.267-11.667 11.667s5.267 11.667 11.667 11.667 11.667-5.267 11.667-11.667-5.267-11.667-11.667-11.667zM11.333 16c-0.733 0-1.333-0.6-1.333-1.333v-2c0-0.733 0.6-1.333 1.333-1.333s1.333 0.6 1.333 1.333v2c0 0.733-0.6 1.333-1.333 1.333zM20.667 16c-0.733 0-1.333-0.6-1.333-1.333v-2c0-0.733 0.6-1.333 1.333-1.333s1.333 0.6 1.333 1.333v2c0 0.733-0.6 1.333-1.333 1.333zM21.867 22.333h-11.733c-0.533 0-1-0.467-1-1s0.467-1 1-1h11.667c0.533 0 1 0.467 1 1s-0.4 1-0.933 1z"></path>
</svg>
