<!-- Generated by IcoMoon.io -->
<svg version="1.1" xmlns="http://www.w3.org/2000/svg" width="32" height="32" viewBox="0 0 32 32">
<title>menu</title>
<path d="M3.333 6.667c0 1.105 0.895 2 2 2s2-0.895 2-2v0c0-1.105-0.895-2-2-2s-2 0.895-2 2v0zM3.333 16c0 1.105 0.895 2 2 2s2-0.895 2-2v0c0-1.105-0.895-2-2-2s-2 0.895-2 2v0zM3.333 25.333c0 1.105 0.895 2 2 2s2-0.895 2-2v0c0-1.105-0.895-2-2-2s-2 0.895-2 2v0zM28 24.333h-16.667c-0.533 0-1 0.467-1 1s0.467 1 1 1h16.667c0.533 0 1-0.467 1-1s-0.467-1-1-1zM11.333 7.667h16.667c0.533 0 1-0.467 1-1s-0.467-1-1-1h-16.667c-0.533 0-1 0.467-1 1s0.467 1 1 1zM28 15h-16.667c-0.533 0-1 0.467-1 1s0.467 1 1 1h16.667c0.533 0 1-0.467 1-1s-0.467-1-1-1z"></path>
</svg>
