<!-- Generated by IcoMoon.io -->
<svg version="1.1" xmlns="http://www.w3.org/2000/svg" width="32" height="32" viewBox="0 0 32 32">
<title>mic</title>
<path d="M16.133 20.533c2.467 0 4.467-2 4.467-4.467v-9.267c0-2.467-2-4.467-4.467-4.467s-4.467 2-4.467 4.467v0 9.267c0 2.467 2 4.467 4.467 4.467zM13.667 6.8c0-1.333 1.133-2.467 2.467-2.467s2.467 1.133 2.467 2.467v9.267c0 1.333-1.133 2.467-2.467 2.467s-2.467-1.133-2.467-2.467v-9.267zM24.2 12.8c-0.533 0-1 0.467-1 1v2.333c0 3.933-3.2 7.133-7.133 7.133s-7.067-3.267-7.067-7.2v-2.333c0-0.533-0.467-1-1-1s-1 0.467-1 1v2.333c0 4.667 3.533 8.533 8.133 9.067v2.667h-3.667c-0.533 0-1 0.467-1 1s0.467 1 1 1h9.267c0.533 0 1-0.467 1-1s-0.467-1-1-1h-3.667v-2.667c4.533-0.467 8.133-4.4 8.133-9.067v-2.333c0-0.533-0.4-0.933-1-0.933z"></path>
</svg>
