<!-- Generated by IcoMoon.io -->
<svg version="1.1" xmlns="http://www.w3.org/2000/svg" width="32" height="32" viewBox="0 0 32 32">
<title>minus-circle</title>
<path d="M16 29.667c-7.533 0-13.667-6.133-13.667-13.667s6.133-13.667 13.667-13.667 13.667 6.133 13.667 13.667-6.133 13.667-13.667 13.667zM16 4.333c-6.4 0-11.667 5.267-11.667 11.667s5.267 11.667 11.667 11.667 11.667-5.267 11.667-11.667-5.267-11.667-11.667-11.667zM21.333 17h-10.667c-0.533 0-1-0.467-1-1s0.467-1 1-1h10.667c0.533 0 1 0.467 1 1s-0.467 1-1 1z"></path>
</svg>
