<!-- Generated by IcoMoon.io -->
<svg version="1.1" xmlns="http://www.w3.org/2000/svg" width="32" height="32" viewBox="0 0 32 32">
<title>modular</title>
<path d="M12.667 14.333h-8c-0.933 0-1.667-0.733-1.667-1.667v-8c0-0.933 0.733-1.667 1.667-1.667h8c0.933 0 1.667 0.733 1.667 1.667v8c0 0.933-0.733 1.667-1.667 1.667zM5 12.333h7.333v-7.333h-7.333v7.333zM27.333 14.333h-8c-0.933 0-1.667-0.733-1.667-1.667v-8c0-0.933 0.733-1.667 1.667-1.667h8c0.933 0 1.667 0.733 1.667 1.667v8c0 0.933-0.733 1.667-1.667 1.667zM19.667 12.333h7.333v-7.333h-7.333v7.333zM27.333 29h-8c-0.933 0-1.667-0.733-1.667-1.667v-8c0-0.933 0.733-1.667 1.667-1.667h8c0.933 0 1.667 0.733 1.667 1.667v8c0 0.933-0.733 1.667-1.667 1.667zM19.667 27h7.333v-7.333h-7.333v7.333zM12.667 29h-8c-0.933 0-1.667-0.733-1.667-1.667v-8c0-0.933 0.733-1.667 1.667-1.667h8c0.933 0 1.667 0.733 1.667 1.667v8c0 0.933-0.733 1.667-1.667 1.667zM5 27h7.333v-7.333h-7.333v7.333z"></path>
</svg>
