<!-- Generated by IcoMoon.io -->
<svg version="1.1" xmlns="http://www.w3.org/2000/svg" width="32" height="32" viewBox="0 0 32 32">
<title>more</title>
<path d="M16 2.333c-7.533 0-13.667 6.133-13.667 13.667s6.133 13.667 13.667 13.667 13.667-6.133 13.667-13.667-6.133-13.667-13.667-13.667zM16 27.667c-6.4 0-11.667-5.267-11.667-11.667s5.267-11.667 11.667-11.667 11.667 5.267 11.667 11.667-5.267 11.667-11.667 11.667zM14.667 16c0 0.736 0.597 1.333 1.333 1.333s1.333-0.597 1.333-1.333v0c0-0.736-0.597-1.333-1.333-1.333s-1.333 0.597-1.333 1.333v0zM9.333 16c0 0 0 0 0 0 0 0.736 0.597 1.333 1.333 1.333s1.333-0.597 1.333-1.333c0-0 0-0 0-0v0c0-0 0-0 0-0 0-0.736-0.597-1.333-1.333-1.333s-1.333 0.597-1.333 1.333c0 0 0 0 0 0v0zM20 16c0 0 0 0 0 0 0 0.736 0.597 1.333 1.333 1.333s1.333-0.597 1.333-1.333c0-0 0-0 0-0v0c0-0 0-0 0-0 0-0.736-0.597-1.333-1.333-1.333s-1.333 0.597-1.333 1.333c0 0 0 0 0 0v0z"></path>
</svg>
