<!-- Generated by IcoMoon.io -->
<svg version="1.1" xmlns="http://www.w3.org/2000/svg" width="32" height="32" viewBox="0 0 32 32">
<title>move</title>
<path d="M28.8 15.4l-3.8-3.8c-0.4-0.4-1-0.4-1.4 0s-0.4 1 0 1.4l2.067 2.067h-8.667v-8.667l2.067 2.067c0.2 0.2 0.467 0.267 0.733 0.267s0.533-0.067 0.733-0.267c0.4-0.4 0.4-1 0-1.4l-3.8-3.8c-0.4-0.4-1-0.4-1.4 0l-3.8 3.8c-0.4 0.4-0.4 1 0 1.4s1 0.4 1.4 0l2.067-2.067v8.667h-8.667l2.067-2.067c0.4-0.4 0.4-1 0-1.4s-1-0.4-1.4 0l-3.8 3.8c-0.4 0.4-0.4 1 0 1.4l3.8 3.8c0.2 0.2 0.467 0.267 0.733 0.267s0.533-0.067 0.733-0.267c0.4-0.4 0.4-1 0-1.4l-2.067-2.067h8.667v8.667l-2.067-2.067c-0.4-0.4-1-0.4-1.4 0s-0.4 1 0 1.4l3.8 3.8c0.2 0.2 0.467 0.267 0.733 0.267s0.533-0.067 0.733-0.267l3.8-3.8c0.4-0.4 0.4-1 0-1.4s-1-0.4-1.4 0l-2.067 2.067v-8.667h8.667l-2.067 2.067c-0.4 0.4-0.4 1 0 1.4 0.2 0.2 0.467 0.267 0.733 0.267s0.533-0.067 0.733-0.267l3.8-3.8c0.2-0.2 0.267-0.467 0.267-0.733s-0.333-0.467-0.533-0.667z"></path>
</svg>
