<!-- Generated by IcoMoon.io -->
<svg version="1.1" xmlns="http://www.w3.org/2000/svg" width="32" height="32" viewBox="0 0 32 32">
<title>navigation</title>
<path d="M26.067 6.667c-0.2-0.4-0.533-0.733-0.933-0.867s-0.867-0.133-1.267 0.067l-20.533 9.8c-0.467 0.2-0.8 0.667-0.933 1.133-0.2 0.867 0.4 1.8 1.267 2l7.8 1.667 1.667 7.8c0.133 0.533 0.467 0.933 0.933 1.133 0.2 0.133 0.467 0.133 0.733 0.133 0.6 0 1.2-0.333 1.533-0.933l9.8-20.533c0.2-0.4 0.2-0.933-0.067-1.4zM14.933 26.933l-1.6-7.467c-0.067-0.4-0.4-0.667-0.733-0.733l-7.533-1.667 18.8-9-8.933 18.867z"></path>
</svg>
