<!-- Generated by IcoMoon.io -->
<svg version="1.1" xmlns="http://www.w3.org/2000/svg" width="32" height="32" viewBox="0 0 32 32">
<title>notification</title>
<path d="M25 19.533v-5.533c0-3.667-2.2-6.8-5.333-8.2-0.133-1.933-1.733-3.467-3.667-3.467s-3.533 1.533-3.667 3.467c-3.133 1.4-5.333 4.533-5.333 8.2v5.533c-1.8 1.467-2.667 3.467-2.667 5.8 0 0.533 0.467 1 1 1h6.467c0.467 1.933 2.2 3.333 4.2 3.333s3.733-1.4 4.2-3.333h6.467c0.533 0 1-0.467 1-1 0-2.4-0.867-4.333-2.667-5.8zM16 4.333c0.6 0 1.133 0.333 1.4 0.8-0.467-0.067-0.933-0.133-1.4-0.133s-0.933 0.067-1.4 0.133c0.267-0.467 0.8-0.8 1.4-0.8zM16 27.667c-0.933 0-1.733-0.533-2.067-1.333h4.2c-0.4 0.8-1.2 1.333-2.133 1.333zM6.4 24.333c0.2-1.467 0.933-2.6 2.2-3.533 0.267-0.2 0.4-0.467 0.4-0.8v-6c0-3.867 3.133-7 7-7s7 3.133 7 7v6c0 0.333 0.133 0.6 0.4 0.8 1.267 0.933 2 2.067 2.2 3.533h-19.2z"></path>
</svg>
