<!-- Generated by IcoMoon.io -->
<svg version="1.1" xmlns="http://www.w3.org/2000/svg" width="32" height="32" viewBox="0 0 32 32">
<title>notification-filling</title>
<path d="M12.133 27.333c0.733 1.4 2.2 2.333 3.867 2.333s3.133-0.933 3.867-2.333h-7.733zM27.667 24.4c-0.067-2.2-0.933-4-2.533-5.4l-0.133-0.133v-4.867c0-3.667-2.2-6.8-5.333-8.2-0.133-1.933-1.733-3.467-3.667-3.467s-3.533 1.533-3.667 3.467c-3.133 1.4-5.333 4.533-5.333 8.2v4.867l-0.133 0.133c-1.667 1.467-2.533 3.4-2.533 5.667 0 0.533 0.467 1 1 1h21.333c0.533 0 1-0.467 1-1v-0.267z"></path>
</svg>
