<!-- Generated by IcoMoon.io -->
<svg version="1.1" xmlns="http://www.w3.org/2000/svg" width="32" height="32" viewBox="0 0 32 32">
<title>operation</title>
<path d="M25.733 16h-7.667v-5.867c0-2.067-1.667-3.733-3.667-3.733s-3.667 1.667-3.667 3.733v9.267l-0.667-0.667c-1.467-1.467-3.8-1.467-5.267-0.067s-1.4 3.8 0.067 5.267l5.467 5.467c0.2 0.2 0.467 0.267 0.733 0.267s0.533-0.067 0.733-0.267c0.4-0.4 0.4-1 0-1.4l-5.467-5.467c-0.667-0.667-0.733-1.8-0.067-2.4 0.667-0.667 1.733-0.6 2.4 0.067l2.333 2.333c0.4 0.4 1 0.4 1.4 0 0.2-0.2 0.267-0.467 0.267-0.733v-11.6c0-0.933 0.733-1.733 1.667-1.733s1.667 0.8 1.667 1.733v6.867c0 0.533 0.467 1 1 1h8.667c0.2 0 0.333 0.2 0.333 0.4v10.2c0 0.533 0.467 1 1 1s1-0.467 1-1v-10.333c0.067-1.267-1-2.333-2.267-2.333zM8.333 10.333c0.533 0 1-0.467 1-1 0-2.733 2.267-5 5-5s5 2.267 5 5c0 0.533 0.467 1 1 1s1-0.467 1-1c0-3.867-3.133-7-7-7s-7 3.133-7 7c0 0.533 0.467 1 1 1z"></path>
</svg>
