<!-- Generated by IcoMoon.io -->
<svg version="1.1" xmlns="http://www.w3.org/2000/svg" width="32" height="32" viewBox="0 0 32 32">
<title>pad</title>
<path d="M25.333 29.667h-18.667c-1.267 0-2.333-1.067-2.333-2.333v-22.667c0-1.267 1.067-2.333 2.333-2.333h18.667c1.267 0 2.333 1.067 2.333 2.333v22.667c0 1.267-1.067 2.333-2.333 2.333zM6.667 4.333c-0.2 0-0.333 0.133-0.333 0.333v22.667c0 0.2 0.133 0.333 0.333 0.333h18.667c0.2 0 0.333-0.133 0.333-0.333v-22.667c0-0.2-0.133-0.333-0.333-0.333h-18.667zM14.667 24c0 0.736 0.597 1.333 1.333 1.333s1.333-0.597 1.333-1.333v0c0-0.736-0.597-1.333-1.333-1.333s-1.333 0.597-1.333 1.333v0z"></path>
</svg>
