<!-- Generated by IcoMoon.io -->
<svg version="1.1" xmlns="http://www.w3.org/2000/svg" width="32" height="32" viewBox="0 0 32 32">
<title>pdf</title>
<path d="M18.2 27h-12.867c-0.2 0-0.333-0.133-0.333-0.333v-21.333c0-0.2 0.133-0.333 0.333-0.333h9.667v5c0 1.267 1.067 2.333 2.333 2.333h5v1.2c0 0.533 0.467 1 1 1s1-0.467 1-1v-4.2c0-0.267-0.133-0.533-0.267-0.733l-5.333-5.333c-0.2-0.2-0.467-0.267-0.733-0.267h-12.667c-1.267 0-2.333 1.067-2.333 2.333v21.333c0 1.267 1.067 2.333 2.333 2.333h12.867c0.533 0 1-0.467 1-1s-0.467-1-1-1zM22.333 9.8v0.533h-5c-0.2 0-0.333-0.133-0.333-0.333v-5h0.6l4.733 4.8zM10.4 16.667c-0.4 0-0.6 0.067-0.8 0.2s-0.267 0.4-0.267 0.733v6.467c0 0.2 0.067 0.4 0.2 0.6 0.133 0.133 0.333 0.267 0.667 0.267s0.533-0.133 0.667-0.267c0.133-0.133 0.2-0.333 0.2-0.6v-2h1c1.8 0 2.8-0.933 2.8-2.733 0-0.867-0.267-1.6-0.733-2-0.467-0.467-1.133-0.667-2.067-0.667h-1.667zM13.133 19.333c0 0.4-0.067 0.733-0.267 0.867-0.133 0.133-0.467 0.267-0.867 0.267h-1v-2.2h1c0.4 0 0.667 0.067 0.867 0.267 0.2 0.133 0.267 0.4 0.267 0.8zM20.867 17.867c-0.267-0.4-0.667-0.667-1.067-0.933-0.467-0.133-1-0.267-1.6-0.267h-1.933c-0.267 0-0.533 0-0.733 0.267-0.067 0.133-0.133 0.333-0.133 0.6v6.467c0 0.267 0.067 0.467 0.133 0.6 0.2 0.267 0.467 0.267 0.733 0.267h2c0.6 0 1.067-0.133 1.533-0.333 0.4-0.2 0.8-0.533 1.067-0.933s0.467-0.8 0.6-1.333c0.133-0.467 0.2-1 0.2-1.533s-0.067-1.067-0.2-1.533c-0.133-0.467-0.333-0.933-0.6-1.333zM19.533 22.667c-0.267 0.4-0.667 0.6-1.2 0.6h-1.2v-5h0.867c0.667 0 1.2 0.2 1.467 0.6 0.333 0.4 0.467 1.067 0.467 1.867 0.067 0.867-0.133 1.467-0.4 1.933zM26.6 16.667h-3.333c-0.267 0-0.533 0.067-0.667 0.2-0.2 0.133-0.267 0.4-0.267 0.667v6.533c0 0.2 0.067 0.4 0.2 0.533 0.133 0.2 0.333 0.267 0.667 0.267 0.267 0 0.533-0.067 0.667-0.267 0.067-0.133 0.2-0.267 0.2-0.6v-2.667h2.267c0.4 0 0.733-0.2 0.8-0.533 0.067-0.267 0.067-0.467 0-0.533-0.067-0.133-0.2-0.533-0.8-0.533h-2.333v-1.533h2.533c0.267 0 0.467-0.067 0.6-0.133s0.267-0.267 0.267-0.667c0.067-0.4-0.267-0.733-0.8-0.733z"></path>
</svg>
