<!-- Generated by IcoMoon.io -->
<svg version="1.1" xmlns="http://www.w3.org/2000/svg" width="32" height="32" viewBox="0 0 32 32">
<title>picture-filling</title>
<path d="M26.667 3c1.267 0 2.333 1.067 2.333 2.333v21.333c0 1.267-1.067 2.333-2.333 2.333h-21.333c-1.267 0-2.333-1.067-2.333-2.333v-21.333c0-1.267 1.067-2.333 2.333-2.333h21.333zM23.333 14.667c-0.333-0.4-1-0.467-1.4-0.067l-12 10.733c-0.6 0.6-0.133 1.667 0.733 1.667h15.4c0.533-0.067 0.933-0.467 0.933-1v-6.133c0-0.2-0.067-0.333-0.2-0.467l-3.4-4.667-0.067-0.067zM11 8.333c-1.467 0-2.667 1.2-2.667 2.667s1.2 2.667 2.667 2.667 2.667-1.2 2.667-2.667-1.2-2.667-2.667-2.667z"></path>
</svg>
