<!-- Generated by IcoMoon.io -->
<svg version="1.1" xmlns="http://www.w3.org/2000/svg" width="32" height="32" viewBox="0 0 32 32">
<title>picture</title>
<path d="M25.6 3h-19.2c-1.867 0-3.4 1.533-3.4 3.4v19.267c0 1.867 1.533 3.4 3.4 3.4h19.267c1.867 0 3.4-1.533 3.4-3.4v-19.267c-0.067-1.867-1.6-3.4-3.467-3.4zM5 25.6v-19.2c0-0.733 0.6-1.4 1.4-1.4h19.267c0.733 0 1.4 0.6 1.4 1.4v12.133l-3.933-3.933c-0.867-0.867-2.4-0.867-3.267 0l-12.2 12c-0.133 0.133-0.2 0.267-0.2 0.4h-1.067c-0.8 0-1.4-0.6-1.4-1.4zM25.6 27h-15.467l11.067-11.067c0.067-0.067 0.2-0.067 0.267-0.067s0.133 0 0.267 0.067l5 5c0.133 0.133 0.267 0.2 0.4 0.2v4.467c-0.133 0.8-0.733 1.4-1.533 1.4zM11.733 15.067c1.867 0 3.333-1.467 3.333-3.333s-1.467-3.333-3.333-3.333-3.333 1.467-3.333 3.333 1.533 3.333 3.333 3.333zM11.733 10.4c0.733 0 1.333 0.6 1.333 1.333s-0.6 1.333-1.333 1.333-1.333-0.6-1.333-1.333 0.6-1.333 1.333-1.333z"></path>
</svg>
