<!-- Generated by IcoMoon.io -->
<svg version="1.1" xmlns="http://www.w3.org/2000/svg" width="32" height="32" viewBox="0 0 32 32">
<title>pin</title>
<path d="M28.473 10.122l-6.922-6.922c-0.588-0.588-1.567-0.653-2.22-0.065l-8.359 7.184-3.004 0.457c-0.196 0-0.392 0.131-0.522 0.261l-1.829 1.829c-0.653 0.653-0.653 1.698 0 2.286l4.767 4.767-6.465 6.465c-0.392 0.392-0.392 0.98 0 1.371 0.196 0.196 0.457 0.327 0.653 0.327s0.522-0.065 0.718-0.261l6.4-6.4 4.767 4.767c0.327 0.327 0.718 0.457 1.175 0.457s0.849-0.196 1.175-0.457l1.829-1.829c0.131-0.131 0.261-0.327 0.261-0.522l0.457-3.004 7.118-8.359c0.588-0.784 0.588-1.763 0-2.351zM19.722 19.657c-0.131 0.131-0.196 0.327-0.196 0.457l-0.457 2.939-1.437 1.437-10.449-10.449 1.371-1.371 2.939-0.457c0.196 0 0.327-0.131 0.457-0.196l8.425-7.184 6.465 6.465-7.118 8.359z"></path>
</svg>
