<!-- Generated by IcoMoon.io -->
<svg version="1.1" xmlns="http://www.w3.org/2000/svg" width="32" height="32" viewBox="0 0 32 32">
<title>play</title>
<path d="M16 2.333c-7.533 0-13.667 6.133-13.667 13.667s6.133 13.667 13.667 13.667 13.667-6.133 13.667-13.667-6.133-13.667-13.667-13.667zM16 27.667c-6.4 0-11.667-5.267-11.667-11.667s5.267-11.667 11.667-11.667 11.667 5.267 11.667 11.667-5.267 11.667-11.667 11.667zM22.133 14.533l-7.333-4.2c-0.267-0.133-0.533-0.2-0.8-0.2-0.933 0-1.667 0.733-1.667 1.667v8.4c0 0.267 0.067 0.6 0.2 0.8 0.333 0.533 0.867 0.867 1.467 0.867 0.267 0 0.533-0.067 0.8-0.2l7.333-4.2c0.267-0.133 0.467-0.333 0.6-0.6 0.2-0.4 0.267-0.867 0.133-1.267-0.067-0.467-0.333-0.8-0.733-1.067zM14.333 19.6v-7.2l6.333 3.6-6.333 3.6z"></path>
</svg>
