<!-- Generated by IcoMoon.io -->
<svg version="1.1" xmlns="http://www.w3.org/2000/svg" width="32" height="32" viewBox="0 0 32 32">
<title>print</title>
<path d="M25.6 11.4h-1.4v-7.4c0-0.533-0.467-1-1-1h-14.4c-0.533 0-1 0.467-1 1v7.4h-1.4c-1.867 0-3.4 1.533-3.4 3.4v6c0 1.867 1.533 3.4 3.4 3.4h1.4v3.8c0 0.533 0.467 1 1 1h14.4c0.533 0 1-0.467 1-1v-3.8h1.4c1.867 0 3.4-1.533 3.4-3.4v-6c0-1.867-1.533-3.4-3.4-3.4zM9.8 5h12.4v6.4h-12.4v-6.4zM22.2 27h-12.4v-7.6h12.4v7.6zM27 20.8c0 0.8-0.6 1.4-1.4 1.4h-1.4v-3.8c0-0.533-0.467-1-1-1h-14.4c-0.533 0-1 0.467-1 1v3.8h-1.4c-0.8 0-1.4-0.6-1.4-1.4v-6c0-0.8 0.6-1.4 1.4-1.4h19.2c0.8 0 1.4 0.6 1.4 1.4v6z"></path>
</svg>
