<!-- Generated by IcoMoon.io -->
<svg version="1.1" xmlns="http://www.w3.org/2000/svg" width="32" height="32" viewBox="0 0 32 32">
<title>prompt-filling</title>
<path d="M16 2.333c7.533 0 13.667 6.133 13.667 13.667s-6.133 13.667-13.667 13.667-13.667-6.133-13.667-13.667 6.133-13.667 13.667-13.667zM16 13c-0.533 0-1 0.467-1 1v9.4c0.067 0.533 0.467 0.933 1 0.933s1-0.467 1-1v-9.4c-0.067-0.533-0.467-0.933-1-0.933zM16 8c-0.733 0-1.333 0.6-1.333 1.333s0.6 1.333 1.333 1.333 1.333-0.6 1.333-1.333-0.6-1.333-1.333-1.333z"></path>
</svg>
