<!-- Generated by IcoMoon.io -->
<svg version="1.1" xmlns="http://www.w3.org/2000/svg" width="32" height="32" viewBox="0 0 32 32">
<title>refresh</title>
<path d="M29.2 6.467c-0.533-0.133-1.067 0.2-1.2 0.733l-0.733 2.733c-2.333-4.2-6.8-6.933-11.733-6.933-7.267 0-13.2 5.8-13.2 13s5.933 13 13.2 13c5.6 0 10.6-3.467 12.467-8.6 0.2-0.533-0.067-1.067-0.6-1.267s-1.067 0.067-1.267 0.6c-1.6 4.333-5.867 7.267-10.6 7.267-6.2 0-11.2-4.933-11.2-11s5.067-11 11.2-11c4.533 0 8.667 2.733 10.333 6.8l-4-1.133c-0.533-0.133-1.067 0.2-1.2 0.733s0.2 1.067 0.733 1.2l5.8 1.533c0.067 0 0.2 0.067 0.267 0.067 0.2 0 0.333-0.067 0.533-0.133 0.2-0.133 0.4-0.333 0.467-0.6l1.533-5.8c0-0.533-0.267-1.067-0.8-1.2z"></path>
</svg>
