<!-- Generated by IcoMoon.io -->
<svg version="1.1" xmlns="http://www.w3.org/2000/svg" width="32" height="32" viewBox="0 0 32 32">
<title>run-up</title>
<path d="M12.8 9.208l2.22-2.22v7.771c0 0.522 0.457 0.98 0.98 0.98s0.98-0.457 0.98-0.98v-7.837l2.22 2.22c0.196 0.196 0.457 0.261 0.718 0.261s0.522-0.065 0.718-0.261c0.392-0.392 0.392-0.98 0-1.371l-3.918-3.918c-0.392-0.392-0.98-0.392-1.371 0l-3.918 3.918c-0.392 0.392-0.392 0.98 0 1.371 0.327 0.392 0.98 0.392 1.371 0.065zM29.257 14.106l-7.575-2.547c-0.522-0.196-1.045 0.131-1.241 0.588-0.196 0.522 0.131 1.045 0.588 1.241l4.898 1.633-9.927 3.527-9.927-3.527 4.898-1.633c0.522-0.196 0.784-0.718 0.588-1.241s-0.718-0.784-1.241-0.588l-7.575 2.547c-0.392 0.131-0.653 0.522-0.653 0.914s0.261 0.784 0.653 0.914l12.931 4.571c0.131 0.065 0.196 0.065 0.327 0.065s0.196 0 0.327-0.065l12.931-4.571c0.392-0.131 0.653-0.522 0.653-0.914 0-0.457-0.261-0.784-0.653-0.914zM16 22.335c-0.522 0-0.98 0.457-0.98 0.98v4.898c0 0.522 0.457 0.98 0.98 0.98s0.98-0.457 0.98-0.98v-4.898c0-0.522-0.457-0.98-0.98-0.98z"></path>
</svg>
