<!-- Generated by IcoMoon.io -->
<svg version="1.1" xmlns="http://www.w3.org/2000/svg" width="32" height="32" viewBox="0 0 32 32">
<title>run-in</title>
<path d="M19.136 23.936l-2.176 2.176v-3.712c0-0.512-0.448-0.96-0.96-0.96s-0.96 0.448-0.96 0.96v3.776l-2.176-2.176c-0.384-0.384-0.96-0.384-1.344 0s-0.384 0.96 0 1.344l3.84 3.84c0.192 0.192 0.448 0.256 0.704 0.256s0.512-0.064 0.704-0.256l3.84-3.84c0.384-0.384 0.384-0.96 0-1.344s-1.088-0.384-1.472-0.064zM28.992 13.184l-7.424-2.496c-0.512-0.192-1.024 0.128-1.216 0.576-0.192 0.512 0.128 1.024 0.576 1.216l4.8 1.6-9.728 3.456-9.728-3.456 4.8-1.6c0.512-0.192 0.768-0.704 0.576-1.216s-0.704-0.768-1.216-0.576l-7.424 2.496c-0.384 0.128-0.64 0.512-0.64 0.896s0.256 0.768 0.64 0.896l12.672 4.48c0.128 0.064 0.192 0.064 0.32 0.064s0.192 0 0.32-0.064l12.672-4.48c0.384-0.128 0.64-0.512 0.64-0.896 0-0.448-0.256-0.768-0.64-0.896zM16 15.68c0.512 0 0.96-0.448 0.96-0.96v-9.92c0-0.512-0.448-0.96-0.96-0.96s-0.96 0.448-0.96 0.96v9.92c0 0.512 0.448 0.96 0.96 0.96z"></path>
</svg>
