<!-- Generated by IcoMoon.io -->
<svg version="1.1" xmlns="http://www.w3.org/2000/svg" width="32" height="32" viewBox="0 0 32 32">
<title>save</title>
<path d="M28.333 9.333l-5.667-5.667c-0.467-0.467-1-0.667-1.667-0.667h-15.667c-1.267 0-2.333 1.067-2.333 2.333v21.333c0 1.267 1.067 2.333 2.333 2.333h21.333c1.267 0 2.333-1.067 2.333-2.333v-15.733c0-0.6-0.267-1.2-0.667-1.6zM20.4 27h-8.8v-6.733h8.8v6.733zM27 26.667c0 0.2-0.133 0.333-0.333 0.333h-4.4v-7.667c0-0.533-0.4-0.933-0.933-0.933h-10.667c-0.533 0-0.933 0.4-0.933 0.933v7.667h-4.4c-0.2 0-0.333-0.133-0.333-0.333v-21.333c0-0.2 0.133-0.333 0.333-0.333h4.4v5c0 0.533 0.4 0.933 0.933 0.933h8.667c0.533 0 0.933-0.4 0.933-0.933s-0.4-0.933-0.933-0.933h-7.733v-4.067h9.467c0.067 0 0.2 0.067 0.267 0.067l5.6 5.6c0.067 0.067 0.067 0.133 0.067 0.267v15.733z"></path>
</svg>
