<!-- Generated by IcoMoon.io -->
<svg version="1.1" xmlns="http://www.w3.org/2000/svg" width="32" height="32" viewBox="0 0 32 32">
<title>scanning</title>
<path d="M10.667 27h-5.333c-0.2 0-0.333-0.133-0.333-0.333v-5.333c0-0.533-0.467-1-1-1s-1 0.467-1 1v5.333c0 1.267 1.067 2.333 2.333 2.333h5.333c0.533 0 1-0.467 1-1s-0.467-1-1-1zM28 20.333c-0.533 0-1 0.467-1 1v5.333c0 0.2-0.133 0.333-0.333 0.333h-5.333c-0.533 0-1 0.467-1 1s0.467 1 1 1h5.333c1.267 0 2.333-1.067 2.333-2.333v-5.333c0-0.533-0.467-1-1-1zM4 11.667c0.533 0 1-0.467 1-1v-5.333c0-0.2 0.133-0.333 0.333-0.333h5.333c0.533 0 1-0.467 1-1s-0.467-1-1-1h-5.333c-1.267 0-2.333 1.067-2.333 2.333v5.333c0 0.533 0.467 1 1 1zM26.667 3h-5.333c-0.533 0-1 0.467-1 1s0.467 1 1 1h5.333c0.2 0 0.333 0.133 0.333 0.333v5.333c0 0.533 0.467 1 1 1s1-0.467 1-1v-5.333c0-1.267-1.067-2.333-2.333-2.333zM28 14.667h-24c-0.533 0-1 0.467-1 1s0.467 1 1 1h24c0.533 0 1-0.467 1-1s-0.467-1-1-1z"></path>
</svg>
