<!-- Generated by IcoMoon.io -->
<svg version="1.1" xmlns="http://www.w3.org/2000/svg" width="32" height="32" viewBox="0 0 32 32">
<title>security</title>
<path d="M25.467 5.6l-8.933-3.133c-0.333-0.133-0.733-0.133-1.067 0l-8.933 3.133c-0.933 0.333-1.533 1.2-1.533 2.2v10.867c0 6.067 4.933 11 11 11s11-4.933 11-11v-10.867c0-1-0.6-1.933-1.533-2.2zM25 18.667c0 4.933-4.067 9-9 9s-9-4.067-9-9v-10.867c0-0.133 0.067-0.267 0.2-0.333l8.8-3.067 8.8 3.067c0.133 0.067 0.2 0.2 0.2 0.333v10.867zM20.6 12.6l-6 6.067-2.667-2.133c-0.4-0.333-1.067-0.267-1.4 0.133s-0.267 1.067 0.133 1.4l3.333 2.667c0.2 0.133 0.4 0.2 0.6 0.2 0.267 0 0.533-0.067 0.733-0.267l6.667-6.667c0.4-0.4 0.4-1 0-1.4-0.333-0.333-1-0.333-1.4 0z"></path>
</svg>
