<!-- Generated by IcoMoon.io -->
<svg version="1.1" xmlns="http://www.w3.org/2000/svg" width="32" height="32" viewBox="0 0 32 32">
<title>setting</title>
<path d="M28.267 13.2l-2.667-0.467-0.533-1.2 1.533-2.2c0.467-0.667 0.4-1.533-0.2-2.133l-1.667-1.667c-0.6-0.6-1.467-0.667-2.133-0.2l-2.2 1.533-1.2-0.533-0.467-2.667c-0.067-0.733-0.733-1.333-1.533-1.333h-2.333c-0.8 0-1.467 0.6-1.667 1.4l-0.467 2.667-1.2 0.533-2.267-1.6c-0.667-0.467-1.533-0.4-2.133 0.2l-1.667 1.667c-0.6 0.6-0.667 1.467-0.2 2.133l1.533 2.2-0.533 1.2-2.667 0.467c-0.667 0.133-1.267 0.8-1.267 1.6v2.333c0 0.8 0.6 1.467 1.4 1.667l2.667 0.467 0.533 1.2-1.6 2.267c-0.467 0.667-0.4 1.533 0.2 2.133l1.667 1.667c0.6 0.6 1.467 0.667 2.133 0.2l2.2-1.533 1.2 0.533 0.467 2.667c0.133 0.8 0.8 1.4 1.667 1.4h2.333c0.8 0 1.467-0.6 1.667-1.4l0.467-2.667 1.2-0.533 2.2 1.533c0.667 0.467 1.533 0.4 2.133-0.2l1.667-1.667c0.6-0.6 0.667-1.467 0.2-2.133l-1.533-2.2 0.533-1.2 2.667-0.467c0.8-0.133 1.4-0.8 1.4-1.667v-2.333c-0.133-0.867-0.733-1.533-1.533-1.667zM27.667 16.867l-2.933 0.533c-0.333 0.067-0.6 0.267-0.733 0.6l-0.933 2.2c-0.133 0.333-0.067 0.667 0.133 0.933l1.667 2.4-1.267 1.267-2.4-1.667c-0.267-0.2-0.667-0.267-0.933-0.133l-2.267 1c-0.333 0.133-0.533 0.4-0.6 0.733l-0.533 2.933h-1.8l-0.533-2.933c-0.067-0.333-0.267-0.6-0.6-0.733l-2.2-0.933c-0.333-0.133-0.667-0.067-0.933 0.133l-2.4 1.667-1.267-1.267 1.667-2.4c0.2-0.267 0.267-0.667 0.133-0.933l-0.933-2.267c-0.133-0.333-0.4-0.533-0.733-0.6l-2.933-0.533v-1.8l2.933-0.533c0.333-0.067 0.6-0.267 0.733-0.6l0.933-2.2c0.133-0.333 0.067-0.667-0.133-0.933l-1.667-2.4 1.267-1.267 2.4 1.667c0.267 0.2 0.667 0.267 0.933 0.133l2.267-0.933c0.333-0.133 0.533-0.4 0.6-0.733l0.533-2.933h1.8l0.533 2.933c0.067 0.333 0.267 0.6 0.6 0.733l2.2 0.933c0.333 0.133 0.667 0.067 0.933-0.133l2.4-1.667 1.267 1.267-1.667 2.4c-0.2 0.267-0.267 0.667-0.133 0.933l0.933 2.267c0.133 0.333 0.4 0.533 0.733 0.6l2.933 0.533v1.733zM16 12.333c-2 0-3.667 1.667-3.667 3.667s1.667 3.667 3.667 3.667 3.667-1.667 3.667-3.667-1.667-3.667-3.667-3.667zM16 17.667c-0.933 0-1.667-0.733-1.667-1.667s0.733-1.667 1.667-1.667 1.667 0.733 1.667 1.667-0.733 1.667-1.667 1.667z"></path>
</svg>
