<!-- Generated by IcoMoon.io -->
<svg version="1.1" xmlns="http://www.w3.org/2000/svg" width="32" height="32" viewBox="0 0 32 32">
<title>setting-filling</title>
<path d="M17.2 2.333c0.8 0 1.467 0.6 1.667 1.4l0.467 2.667 1.2 0.533 2.2-1.6c0.6-0.467 1.467-0.4 2.067 0.133l1.733 1.733c0.6 0.6 0.667 1.467 0.2 2.133l-1.533 2.2 0.533 1.2 2.667 0.467c0.733 0.133 1.333 0.8 1.4 1.533v2.467c0 0.8-0.6 1.467-1.4 1.667l-2.667 0.467-0.533 1.2 1.533 2.2c0.467 0.6 0.4 1.467-0.133 2.067l-1.733 1.733c-0.6 0.6-1.467 0.667-2.133 0.2l-2.2-1.533-1.2 0.533-0.467 2.667c-0.133 0.733-0.8 1.333-1.533 1.4h-2.467c-0.8 0-1.467-0.6-1.667-1.4l-0.467-2.667-1.2-0.533-2.267 1.467c-0.6 0.467-1.467 0.4-2.067-0.133l-1.733-1.733c-0.6-0.6-0.667-1.467-0.2-2.133l1.533-2.2-0.533-1.2-2.667-0.467c-0.733-0.133-1.333-0.8-1.4-1.533v-2.467c0-0.8 0.6-1.467 1.4-1.667l2.667-0.467 0.533-1.2-1.467-2.2c-0.467-0.6-0.4-1.467 0.067-2l1.733-1.733c0.6-0.6 1.467-0.667 2.133-0.2l2.2 1.533 1.2-0.533 0.467-2.667c0.133-0.733 0.8-1.333 1.533-1.4h2.533zM16 12.333c-2 0-3.667 1.667-3.667 3.667s1.667 3.667 3.667 3.667 3.667-1.667 3.667-3.667-1.667-3.667-3.667-3.667z"></path>
</svg>
