<!-- Generated by IcoMoon.io -->
<svg version="1.1" xmlns="http://www.w3.org/2000/svg" width="32" height="32" viewBox="0 0 32 32">
<title>share</title>
<path d="M27.333 17c-0.533 0-1 0.467-1 1v8c0 0.2-0.133 0.333-0.333 0.333h-20c-0.2 0-0.333-0.133-0.333-0.333v-20c0-0.2 0.133-0.333 0.333-0.333h8c0.533 0 1-0.467 1-1s-0.467-1-1-1h-8c-1.267 0-2.333 1.067-2.333 2.333v20c0 1.267 1.067 2.333 2.333 2.333h20c1.267 0 2.333-1.067 2.333-2.333v-8c0-0.533-0.467-1-1-1zM27.333 3.667h-7.333c-0.533 0-1 0.467-1 1s0.467 1 1 1h4.933l-9 8.933c-0.4 0.4-0.4 1 0 1.4 0.2 0.2 0.467 0.267 0.733 0.267s0.533-0.067 0.733-0.267l8.933-8.933v4.933c0 0.533 0.467 1 1 1s1-0.467 1-1v-7.333c0-0.533-0.467-1-1-1z"></path>
</svg>
