<!-- Generated by IcoMoon.io -->
<svg version="1.1" xmlns="http://www.w3.org/2000/svg" width="32" height="32" viewBox="0 0 32 32">
<title>sign-out</title>
<path d="M28.733 15.267l-4.667-4.667c-0.4-0.4-1-0.4-1.4 0s-0.4 1 0 1.4l2.933 2.933h-9.267c-0.533 0-1 0.467-1 1s0.467 1 1 1h9.267l-2.933 2.933c-0.4 0.4-0.4 1 0 1.4 0.2 0.2 0.467 0.267 0.733 0.267s0.533-0.067 0.733-0.267l4.667-4.667c0.267-0.267 0.267-0.933-0.067-1.333zM26 22.333c-0.533 0-1 0.467-1 1v3.333c0 0.2-0.133 0.333-0.333 0.333h-17.333c-0.2 0-0.333-0.133-0.333-0.333v-21.333c0-0.2 0.133-0.333 0.333-0.333h17.333c0.2 0 0.333 0.133 0.333 0.333v3.333c0 0.533 0.467 1 1 1s1-0.467 1-1v-3.333c0-1.267-1.067-2.333-2.333-2.333h-17.333c-1.267 0-2.333 1.067-2.333 2.333v21.333c0 1.267 1.067 2.333 2.333 2.333h17.333c1.267 0 2.333-1.067 2.333-2.333v-3.333c0-0.533-0.467-1-1-1z"></path>
</svg>
