<!-- Generated by IcoMoon.io -->
<svg version="1.1" xmlns="http://www.w3.org/2000/svg" width="32" height="32" viewBox="0 0 32 32">
<title>skip</title>
<path d="M28.8 11.133c-0.467-0.267-1.067-0.133-1.333 0.4l-1.533 2.467c-1.6-4.933-6.267-8.333-11.533-8.333-5.4 0-10.133 3.6-11.667 8.667-0.133 0.533 0.133 1.067 0.667 1.267 0.533 0.133 1.067-0.133 1.267-0.667 1.267-4.267 5.2-7.267 9.733-7.267 4.4 0 8.267 2.8 9.6 6.867l-2.533-1.467c-0.467-0.267-1.067-0.133-1.333 0.333s-0.133 1.067 0.333 1.333l4.6 2.667c0.133 0.067 0.333 0.133 0.533 0.133 0.067 0 0.2 0 0.267-0.067 0.267-0.067 0.467-0.267 0.6-0.467l2.667-4.6c0.267-0.4 0.133-1-0.333-1.267zM28 23.667h-24c-0.533 0-1 0.467-1 1s0.467 1 1 1h24c0.533 0 1-0.467 1-1s-0.467-1-1-1z"></path>
</svg>
