<!-- Generated by IcoMoon.io -->
<svg version="1.1" xmlns="http://www.w3.org/2000/svg" width="32" height="32" viewBox="0 0 32 32">
<title>smile-filling</title>
<path d="M16 2.333c7.533 0 13.667 6.133 13.667 13.667s-6.133 13.667-13.667 13.667-13.667-6.133-13.667-13.667 6.133-13.667 13.667-13.667zM22.467 18.867c-0.4-0.333-1.067-0.267-1.4 0.133-1.467 1.8-3.133 2.667-5.067 2.667s-3.6-0.867-5.067-2.667c-0.333-0.4-1-0.467-1.4-0.133s-0.467 1-0.133 1.4c1.867 2.2 4.067 3.333 6.6 3.333s4.733-1.133 6.6-3.333c0.333-0.4 0.267-1-0.133-1.4zM11.333 11.333c-0.733 0-1.333 0.6-1.333 1.333v2.067c0.067 0.667 0.6 1.267 1.333 1.267s1.333-0.6 1.333-1.333v-2.067c-0.067-0.733-0.6-1.267-1.333-1.267zM20.667 11.333c-0.733 0-1.333 0.6-1.333 1.333v2.067c0.067 0.667 0.6 1.267 1.333 1.267s1.333-0.6 1.333-1.333v-2.067c-0.067-0.733-0.6-1.267-1.333-1.267z"></path>
</svg>
