<!-- Generated by IcoMoon.io -->
<svg version="1.1" xmlns="http://www.w3.org/2000/svg" width="32" height="32" viewBox="0 0 32 32">
<title>sorting</title>
<path d="M8.533 12.667h14.867c0.333 0 0.667-0.133 0.933-0.4 0.533-0.533 0.533-1.333 0-1.867l-7.4-7.467c-0.533-0.533-1.333-0.533-1.867 0l-7.467 7.467c-0.267 0.267-0.4 0.6-0.4 0.933 0 0.733 0.6 1.333 1.333 1.333zM23.467 19.333h-14.933c-0.333 0-0.667 0.133-0.933 0.4-0.533 0.533-0.533 1.333 0 1.867l7.467 7.467c0.533 0.533 1.333 0.533 1.867 0l7.467-7.467c0.267-0.267 0.4-0.6 0.4-0.933 0-0.733-0.6-1.333-1.333-1.333z"></path>
</svg>
