<!-- Generated by IcoMoon.io -->
<svg version="1.1" xmlns="http://www.w3.org/2000/svg" width="32" height="32" viewBox="0 0 32 32">
<title>stop</title>
<path d="M16 2.333c-7.533 0-13.667 6.133-13.667 13.667s6.133 13.667 13.667 13.667 13.667-6.133 13.667-13.667-6.133-13.667-13.667-13.667zM27.667 16c0 2.667-0.933 5.133-2.467 7.133l-16.667-16.067c2-1.733 4.667-2.733 7.467-2.733 6.4 0 11.667 5.267 11.667 11.667zM4.333 16c0-2.867 1.067-5.467 2.733-7.533l16.733 16.133c-2.067 1.867-4.8 3.067-7.867 3.067-6.333 0-11.6-5.267-11.6-11.667z"></path>
</svg>
