<!-- Generated by IcoMoon.io -->
<svg version="1.1" xmlns="http://www.w3.org/2000/svg" width="32" height="32" viewBox="0 0 32 32">
<title>success-filling</title>
<path d="M16 2.333c-7.533 0-13.667 6.133-13.667 13.667s6.133 13.667 13.667 13.667 13.667-6.133 13.667-13.667-6.133-13.667-13.667-13.667zM23.467 13.267l-8.733 8.733c-0.333 0.333-0.933 0.4-1.333 0.067l-4.733-4.733c-0.4-0.4-0.4-1 0-1.4 0.333-0.333 0.933-0.4 1.333-0.067l4 4 7.933-7.933c0.333-0.333 0.933-0.4 1.333-0.067l0.067 0.067c0.4 0.4 0.4 1 0.133 1.333z"></path>
</svg>
