<!-- Generated by IcoMoon.io -->
<svg version="1.1" xmlns="http://www.w3.org/2000/svg" width="32" height="32" viewBox="0 0 32 32">
<title>survey</title>
<path d="M25.333 4.333h-2.667v-0.333c0-0.933-0.733-1.667-1.667-1.667h-10c-0.933 0-1.667 0.733-1.667 1.667v0.333h-2.667c-1.267 0-2.333 1.067-2.333 2.333v20.667c0 1.267 1.067 2.333 2.333 2.333h18.667c1.267 0 2.333-1.067 2.333-2.333v-20.667c0-1.267-1.067-2.333-2.333-2.333zM20.667 4.333v2h-9.333v-2h9.333zM25.667 27.333c0 0.2-0.133 0.333-0.333 0.333h-18.667c-0.2 0-0.333-0.133-0.333-0.333v-20.667c0-0.2 0.133-0.333 0.333-0.333h2.667v0.333c0 0.933 0.733 1.667 1.667 1.667h10c0.933 0 1.667-0.733 1.667-1.667v-0.333h2.667c0.2 0 0.333 0.133 0.333 0.333v20.667zM20.6 13.933l-6.6 6.667-2.6-2.6c-0.4-0.4-1-0.4-1.4 0s-0.4 1 0 1.4l3.333 3.333c0.2 0.2 0.467 0.267 0.733 0.267s0.533-0.067 0.733-0.267l7.333-7.333c0.4-0.4 0.4-1 0-1.4-0.467-0.4-1.133-0.4-1.533-0.067z"></path>
</svg>
