<!-- Generated by IcoMoon.io -->
<svg version="1.1" xmlns="http://www.w3.org/2000/svg" width="32" height="32" viewBox="0 0 32 32">
<title>switch-filling</title>
<path d="M29.2 20.6l-5.467-7c-0.133-0.133-0.333-0.267-0.533-0.267-0.067 0-0.133 0-0.2 0.067-0.267 0.067-0.467 0.333-0.467 0.6v3.467h-9.867c-0.4 0-0.667 0.267-0.667 0.667v5.6c0 0.467 0.267 0.8 0.667 0.8h9.8v3.467c0 0.267 0.2 0.533 0.467 0.6s0.533 0 0.733-0.2l5.467-6.933c0.267-0.267 0.267-0.6 0.067-0.867zM20 13.8v-5.6c0-0.467-0.267-0.8-0.667-0.8h-9.8v-3.4c0-0.267-0.2-0.533-0.467-0.6s-0.533 0-0.733 0.2l-5.533 6.867c-0.2 0.267-0.2 0.6 0 0.933l5.467 7c0.133 0.133 0.333 0.267 0.533 0.267 0.067 0 0.133 0 0.2-0.067 0.267-0.067 0.467-0.333 0.467-0.6v-3.467h9.867c0.4-0.067 0.667-0.333 0.667-0.733z"></path>
</svg>
