<!-- Generated by IcoMoon.io -->
<svg version="1.1" xmlns="http://www.w3.org/2000/svg" width="32" height="32" viewBox="0 0 32 32">
<title>switch</title>
<path d="M4 16.333c0.533 0 1-0.467 1-1v-5.333c0-0.2 0.133-0.333 0.333-0.333h20.4l-2.6 2.6c-0.4 0.4-0.4 1.067 0 1.467 0.2 0.2 0.467 0.333 0.733 0.333s0.533-0.133 0.733-0.333l4.533-4.533c0.4-0.4 0.4-1.067 0-1.467l-4.533-4.533c-0.4-0.4-1.067-0.4-1.467 0s-0.4 1.067 0 1.467l2.933 2.933h-20.733c-1.267 0-2.333 1.067-2.333 2.333v5.333c0 0.6 0.467 1.067 1 1.067zM28.333 15.667c-0.533 0-1 0.467-1 1v5.333c0 0.2-0.133 0.333-0.333 0.333h-20.4l2.6-2.6c0.4-0.4 0.4-1.067 0-1.467s-1.067-0.4-1.467 0l-4.533 4.533c-0.4 0.4-0.4 1.067 0 1.467l4.533 4.533c0.2 0.2 0.467 0.333 0.733 0.333s0.533-0.133 0.733-0.333c0.4-0.4 0.4-1.067 0-1.467l-2.933-2.933h20.733c1.267 0 2.333-1.067 2.333-2.333v-5.333c0-0.6-0.4-1.067-1-1.067z"></path>
</svg>
