<!-- Generated by IcoMoon.io -->
<svg version="1.1" xmlns="http://www.w3.org/2000/svg" width="32" height="32" viewBox="0 0 32 32">
<title>task-filling</title>
<path d="M25.267 4.333l-0.133 0.133c-0.133 0.067-0.333 0.2-0.6 0.267-0.733 0.333-1.8 0.467-3.2 0.467-1.2 0-2.267-0.267-4.667-1l-0.733-0.2c-2.333-0.733-3.533-1-4.933-1-1.6 0-2.933 0.267-3.933 0.667-0.667 0.267-1.067 0.533-1.333 0.8-0.133 0.133-0.267 0.4-0.267 0.667v22.867c0 0.533 0.467 1 1 1s1-0.467 1-1v-8.733c0.133-0.067 0.2-0.133 0.333-0.2 0.733-0.333 1.8-0.467 3.2-0.467h0.267c1.133 0.067 2.2 0.267 4.4 1l1.067 0.333c2.2 0.667 3.333 0.933 4.733 0.933 1.6 0 2.933-0.267 3.933-0.667 0.667-0.267 1.067-0.533 1.333-0.8 0.2-0.2 0.267-0.467 0.267-0.733v-13.533c-0.067-0.867-1.067-1.333-1.733-0.8z"></path>
</svg>
