<!-- Generated by IcoMoon.io -->
<svg version="1.1" xmlns="http://www.w3.org/2000/svg" width="32" height="32" viewBox="0 0 32 32">
<title>task</title>
<path d="M26.467 3.6c-0.267-0.2-0.667-0.2-0.933-0.067 0 0-2.333 1.067-5.467 1.067-1.533 0-3-0.533-4.533-1.067-1.667-0.6-3.333-1.2-5.2-1.2-3.733 0-5.067 1.267-5.267 1.4-0.133 0.2-0.267 0.467-0.267 0.733v24.2c0 0.533 0.467 1 1 1s1-0.467 1-1v-10.067c0.467-0.267 1.6-0.667 3.533-0.667 1.533 0 3 0.533 4.533 1.067 1.667 0.6 3.333 1.2 5.2 1.2 3.6 0 6.2-1.2 6.267-1.2 0.333-0.133 0.6-0.533 0.6-0.933v-13.6c0-0.333-0.2-0.667-0.467-0.867zM24.933 17.4c-0.867 0.333-2.667 0.8-4.867 0.8-1.533 0-3-0.533-4.533-1.067-1.667-0.6-3.333-1.2-5.2-1.2-1.533 0-2.733 0.2-3.533 0.533v-11.467c0.467-0.267 1.6-0.667 3.533-0.667 1.533 0 3 0.533 4.533 1.067 1.667 0.6 3.333 1.2 5.2 1.2 2 0 3.733-0.4 4.867-0.733v11.533z"></path>
</svg>
