<!-- Generated by IcoMoon.io -->
<svg version="1.1" xmlns="http://www.w3.org/2000/svg" width="32" height="32" viewBox="0 0 32 32">
<title>time</title>
<path d="M16 2.333c-7.533 0-13.667 6.133-13.667 13.667s6.133 13.667 13.667 13.667 13.667-6.133 13.667-13.667-6.133-13.667-13.667-13.667zM16 27.667c-6.4 0-11.667-5.267-11.667-11.667s5.267-11.667 11.667-11.667 11.667 5.267 11.667 11.667-5.267 11.667-11.667 11.667zM21.733 17.733l-4.733-2.2v-6.867c0-0.533-0.467-1-1-1s-1 0.467-1 1v7.467c0 0.4 0.2 0.733 0.6 0.933l5.333 2.533c0.133 0.067 0.267 0.067 0.4 0.067 0.4 0 0.733-0.2 0.933-0.6 0.2-0.467 0-1.067-0.533-1.333z"></path>
</svg>
