<!-- Generated by IcoMoon.io -->
<svg version="1.1" xmlns="http://www.w3.org/2000/svg" width="32" height="32" viewBox="0 0 32 32">
<title>toggle-right</title>
<path d="M27.333 25h-22.667c-0.533 0-1 0.467-1 1s0.467 1 1 1h22.667c0.533 0 1-0.467 1-1s-0.467-1-1-1zM4.667 7h22.667c0.533 0 1-0.467 1-1s-0.467-1-1-1h-22.667c-0.533 0-1 0.467-1 1s0.467 1 1 1zM4.667 17h16c0.533 0 1-0.467 1-1s-0.467-1-1-1h-16c-0.533 0-1 0.467-1 1s0.467 1 1 1zM23.4 10.6c-0.4-0.4-1-0.4-1.4 0s-0.4 1 0 1.4l3.933 3.933-3.933 3.933c-0.4 0.4-0.4 1 0 1.4 0.2 0.2 0.467 0.267 0.733 0.267s0.533-0.067 0.733-0.267l4.667-4.667c0.4-0.4 0.4-1 0-1.4l-4.733-4.6z"></path>
</svg>
