<!-- Generated by IcoMoon.io -->
<svg version="1.1" xmlns="http://www.w3.org/2000/svg" width="32" height="32" viewBox="0 0 32 32">
<title>toggle-left</title>
<path d="M27.333 25h-22.667c-0.533 0-1 0.467-1 1s0.467 1 1 1h22.667c0.533 0 1-0.467 1-1s-0.467-1-1-1zM4.667 7h22.667c0.533 0 1-0.467 1-1s-0.467-1-1-1h-22.667c-0.533 0-1 0.467-1 1s0.467 1 1 1zM10.667 15c-0.533 0-1 0.467-1 1s0.467 1 1 1h16c0.533 0 1-0.467 1-1s-0.467-1-1-1h-16zM8.6 21.4c0.2 0.2 0.467 0.267 0.733 0.267s0.533-0.067 0.733-0.267c0.4-0.4 0.4-1 0-1.4l-4-4 3.933-3.933c0.4-0.4 0.4-1 0-1.4s-1-0.4-1.4 0l-4.667 4.667c-0.4 0.4-0.4 1 0 1.4l4.667 4.667z"></path>
</svg>
