<!-- Generated by IcoMoon.io -->
<svg version="1.1" xmlns="http://www.w3.org/2000/svg" width="32" height="32" viewBox="0 0 32 32">
<title>top-filling</title>
<path d="M16.733 7.533c-0.4-0.267-0.867-0.267-1.267 0l-9.733 7.733c-0.2 0.2-0.4 0.467-0.4 0.733 0 0.067 0 0.2 0.067 0.267 0.067 0.4 0.467 0.667 0.867 0.667h4.867v10.067c0 0.6 0.4 0.933 1 0.933h7.8c0.667 0 1.067-0.4 1.067-0.933v-10h4.733c0.4 0 0.8-0.267 0.867-0.667s0-0.8-0.267-1.067l-9.6-7.733zM27 3h-22c-0.533 0-1 0.467-1 1s0.467 1 1 1h22c0.533 0 1-0.467 1-1s-0.467-1-1-1z"></path>
</svg>
