<!-- Generated by IcoMoon.io -->
<svg version="1.1" xmlns="http://www.w3.org/2000/svg" width="32" height="32" viewBox="0 0 32 32">
<title>training</title>
<path d="M26.667 6.333h-9.667v-3c0-0.533-0.467-1-1-1s-1 0.467-1 1v3h-9.667c-1.267 0-2.333 1.067-2.333 2.333v12c0 1.267 1.067 2.333 2.333 2.333h5.867l-2.733 4.733c-0.267 0.467-0.133 1.067 0.333 1.333 0.133 0.067 0.333 0.133 0.467 0.133 0.333 0 0.667-0.2 0.867-0.533l3.333-5.733h4.933l3.333 5.733c0.2 0.333 0.533 0.533 0.867 0.533 0.2 0 0.333-0.067 0.467-0.133 0.467-0.267 0.667-0.867 0.333-1.333l-2.733-4.733h6c1.267 0 2.333-1.067 2.333-2.333v-12c0-1.267-1.067-2.333-2.333-2.333zM27 20.667c0 0.2-0.133 0.333-0.333 0.333h-21.333c-0.2 0-0.333-0.133-0.333-0.333v-12c0-0.2 0.133-0.333 0.333-0.333h21.333c0.2 0 0.333 0.133 0.333 0.333v12zM21.333 15.667h-10.667c-0.533 0-1 0.467-1 1s0.467 1 1 1h10.667c0.533 0 1-0.467 1-1s-0.467-1-1-1zM21.333 11.667h-10.667c-0.533 0-1 0.467-1 1s0.467 1 1 1h10.667c0.533 0 1-0.467 1-1s-0.467-1-1-1z"></path>
</svg>
