<!-- Generated by IcoMoon.io -->
<svg version="1.1" xmlns="http://www.w3.org/2000/svg" width="32" height="32" viewBox="0 0 32 32">
<title>unlock</title>
<path d="M24.533 13h-12.6v-3.8c0-2.333 1.933-4.2 4.333-4.2 1.867 0 3.533 1.133 4.133 2.867 0.2 0.533 0.733 0.8 1.267 0.6s0.8-0.733 0.6-1.267c-0.867-2.533-3.267-4.2-6-4.2-3.467 0-6.333 2.8-6.333 6.2v3.8h-2.467c-1.733 0-3.133 1.4-3.133 3.133v9.733c0 1.733 1.4 3.133 3.133 3.133h17.067c1.733 0 3.133-1.4 3.133-3.133v-9.733c0-1.733-1.4-3.133-3.133-3.133zM25.667 25.867c0 0.6-0.533 1.133-1.133 1.133h-17.067c-0.6 0-1.133-0.533-1.133-1.133v-9.733c0-0.6 0.533-1.133 1.133-1.133h17.067c0.6 0 1.133 0.533 1.133 1.133v9.733zM16 17c-0.533 0-1 0.467-1 1v3.333c0 0.533 0.467 1 1 1s1-0.467 1-1v-3.333c0-0.533-0.467-1-1-1z"></path>
</svg>
