<!-- Generated by IcoMoon.io -->
<svg version="1.1" xmlns="http://www.w3.org/2000/svg" width="32" height="32" viewBox="0 0 32 32">
<title>upload</title>
<path d="M28 19.667c-0.533 0-1 0.467-1 1v5.333c0 0.2-0.133 0.333-0.333 0.333h-21.333c-0.2 0-0.333-0.133-0.333-0.333v-5.333c0-0.533-0.467-1-1-1s-1 0.467-1 1v5.333c0 1.267 1.067 2.333 2.333 2.333h21.333c1.267 0 2.333-1.067 2.333-2.333v-5.333c0-0.533-0.467-1-1-1zM10.067 12.733l4.933-4.933v14.2c0 0.533 0.467 1 1 1s1-0.467 1-1v-14.267l4.933 4.933c0.2 0.2 0.467 0.267 0.733 0.267s0.533-0.067 0.733-0.267c0.4-0.4 0.4-1 0-1.4l-6.667-6.667c-0.4-0.4-1-0.4-1.4 0l-6.667 6.667c-0.4 0.4-0.4 1 0 1.4 0.333 0.4 1 0.4 1.4 0.067z"></path>
</svg>
