<!-- Generated by IcoMoon.io -->
<svg version="1.1" xmlns="http://www.w3.org/2000/svg" width="32" height="32" viewBox="0 0 32 32">
<title>user</title>
<path d="M16 2.333c-7.533 0-13.667 6.133-13.667 13.667s6.133 13.667 13.667 13.667 13.667-6.133 13.667-13.667-6.133-13.667-13.667-13.667zM9 25.333c0-3.867 3.133-7 7-7s7 3.133 7 7c-1.933 1.467-4.4 2.333-7 2.333s-5.067-0.867-7-2.333zM13 13.333c0-1.667 1.333-3 3-3s3 1.333 3 3-1.333 3-3 3-3-1.333-3-3zM24.8 23.6c-0.6-3-2.667-5.467-5.467-6.6 1-0.933 1.6-2.2 1.6-3.667 0-2.733-2.267-5-5-5s-5 2.267-5 5c0 1.467 0.6 2.733 1.6 3.667-2.8 1.133-4.867 3.6-5.467 6.6-1.733-2.067-2.867-4.667-2.867-7.6 0-6.4 5.267-11.667 11.667-11.667s11.8 5.267 11.8 11.667c0 2.933-1.067 5.533-2.867 7.6z"></path>
</svg>
