<!-- Generated by IcoMoon.io -->
<svg version="1.1" xmlns="http://www.w3.org/2000/svg" width="32" height="32" viewBox="0 0 32 32">
<title>user-filling</title>
<path d="M16 2.333c-7.533 0-13.667 6.133-13.667 13.667s6.133 13.667 13.667 13.667 13.667-6.133 13.667-13.667-6.133-13.667-13.667-13.667zM16 7.333c2.2 0 4 1.8 4 4s-1.8 4-4 4-4-1.8-4-4 1.8-4 4-4zM23.4 23.2c-0.733 1-3.667 3.133-7.4 3.133s-6.667-2.133-7.4-3.133c-0.267-0.333-0.333-0.667-0.267-1 0.933-3.467 4.067-5.867 7.667-5.867s6.733 2.4 7.667 5.867c0.067 0.333 0 0.667-0.267 1z"></path>
</svg>
