<!-- Generated by IcoMoon.io -->
<svg version="1.1" xmlns="http://www.w3.org/2000/svg" width="32" height="32" viewBox="0 0 32 32">
<title>warning</title>
<path d="M29.2 24.067l-10.267-18.4c-0.6-1.067-1.733-1.667-2.933-1.667s-2.333 0.667-2.933 1.667l-10.267 18.4c-0.6 1.067-0.6 2.4 0 3.467s1.733 1.8 2.933 1.8h20.533c1.2 0 2.333-0.667 2.933-1.8 0.6-1.067 0.6-2.4 0-3.467zM27.467 26.6c-0.267 0.467-0.733 0.733-1.2 0.733h-20.533c-0.467 0-0.933-0.267-1.2-0.733s-0.267-1.067 0-1.533l10.267-18.4c0.267-0.4 0.733-0.667 1.2-0.667s0.933 0.267 1.2 0.667l10.267 18.4c0.267 0.467 0.267 1 0 1.533zM14.667 23.333c0 0.736 0.597 1.333 1.333 1.333s1.333-0.597 1.333-1.333v0c0-0.736-0.597-1.333-1.333-1.333s-1.333 0.597-1.333 1.333v0zM16 19.667c0.533 0 1-0.467 1-1v-6c0-0.533-0.467-1-1-1s-1 0.467-1 1v6c0 0.533 0.467 1 1 1z"></path>
</svg>
