<!-- Generated by IcoMoon.io -->
<svg version="1.1" xmlns="http://www.w3.org/2000/svg" width="32" height="32" viewBox="0 0 32 32">
<title>warning-filling</title>
<path d="M29.2 24.067l-10.267-18.4c-0.6-1.067-1.733-1.667-2.933-1.667s-2.333 0.667-2.933 1.667l-10.267 18.4c-0.6 1.067-0.6 2.4 0 3.467s1.733 1.8 2.933 1.8h20.533c1.267 0 2.333-0.667 2.933-1.8 0.6-1.067 0.6-2.4 0-3.467zM15 11.333c0-0.533 0.467-1 1-1s0.933 0.4 1 0.933v8.733c0 0.533-0.467 1-1 1s-0.933-0.4-1-0.933v-8.733zM16 26c-0.733 0-1.333-0.6-1.333-1.333s0.6-1.333 1.333-1.333 1.333 0.6 1.333 1.333-0.6 1.333-1.333 1.333z"></path>
</svg>
