<!-- Generated by IcoMoon.io -->
<svg version="1.1" xmlns="http://www.w3.org/2000/svg" width="32" height="32" viewBox="0 0 32 32">
<title>work-filling</title>
<path d="M27.667 8h-5v-1.8c-0.067-1.267-1.133-2.2-2.4-2.2h-9.333c-1.267 0.067-2.267 1.067-2.267 2.333v1.667h-4.333c-1.267 0-2.333 1.067-2.333 2.333v3.667h28v-3.667c0-1.267-1.067-2.333-2.333-2.333zM10.667 6.333c0.067-0.2 0.2-0.333 0.4-0.333h9.267c0.2 0 0.333 0.2 0.333 0.333v1.667h-10v-1.667zM21 18c0 1.267-1.067 2.333-2.333 2.333h-5.333c-1.267 0-2.333-1.067-2.333-2.333v-2h-9v9.667c0 1.267 1.067 2.333 2.333 2.333h23.333c1.267 0 2.333-1.067 2.333-2.333v-9.667h-9v2z"></path>
</svg>
