<!-- Generated by IcoMoon.io -->
<svg version="1.1" xmlns="http://www.w3.org/2000/svg" width="32" height="32" viewBox="0 0 32 32">
<title>zoom-out</title>
<path d="M29.533 28.067l-5.933-5.933c1.733-2 2.733-4.667 2.733-7.533 0-6.4-5.267-11.667-11.667-11.667s-11.667 5.333-11.667 11.733 5.267 11.667 11.667 11.667c2.867 0 5.467-1.067 7.533-2.733l5.933 5.933c0.2 0.2 0.467 0.267 0.733 0.267s0.533-0.067 0.733-0.267c0.267-0.4 0.267-1.067-0.067-1.467zM14.667 24.333c-5.333 0-9.667-4.333-9.667-9.667s4.333-9.667 9.667-9.667 9.667 4.333 9.667 9.667-4.333 9.667-9.667 9.667zM18.667 13.667h-3v-3c0-0.533-0.467-1-1-1s-1 0.467-1 1v3h-3c-0.533 0-1 0.467-1 1s0.467 1 1 1h3v3c0 0.533 0.467 1 1 1s1-0.467 1-1v-3h3c0.533 0 1-0.467 1-1s-0.467-1-1-1z"></path>
</svg>
